<?xml version="1.0" encoding="UTF-8" standalone="no"?>
<svg width="171px" height="73px" viewBox="0 0 171 73" version="1.1" xmlns="http://www.w3.org/2000/svg" xmlns:xlink="http://www.w3.org/1999/xlink" xmlns:sketch="http://www.bohemiancoding.com/sketch/ns">
    <!-- Generator: Sketch 3.3.3 (12072) - http://www.bohemiancoding.com/sketch -->
    <title>auth</title>
    <desc>Created with Sketch.</desc>
    <defs></defs>
    <g id="Page-1" stroke="none" stroke-width="1" fill="none" fill-rule="evenodd" sketch:type="MSPage">
        <g id="auth" sketch:type="MSLayerGroup">
            <g id="Group" sketch:type="MSShapeGroup">
                <path d="M41.438,51.648 C39.631,55.409 38.36,58.767 36.502,61.761 C33.302,66.918 28.334,69.275 22.338,69.655 C13.919,70.188 7.356,66.982 3.122,59.693 C-3.766,47.834 3.125,33.872 14.768,30.319 C26.509,26.735 38.299,34.284 40.636,45.899 C40.749,46.462 41.655,47.263 42.209,47.277 C46.706,47.39 51.207,47.319 55.706,47.353 C57.176,47.364 57.538,46.589 57.511,45.304 C57.47,43.388 57.216,41.407 57.62,39.578 C57.875,38.422 59.03,37.305 60.069,36.581 C60.373,36.369 61.93,37.399 62.415,38.172 C62.834,38.839 62.565,39.95 62.566,40.864 C62.575,47.347 62.572,47.348 69.156,47.348 L79.496,47.348 C79.587,47.113 79.679,46.877 79.77,46.642 C78.601,45.417 77.419,44.205 76.269,42.963 C75.594,42.234 74.652,41.548 74.406,40.68 C74.1,39.6 74.389,38.352 74.42,37.176 C75.642,37.404 77.261,37.214 78.019,37.932 C82.001,41.705 85.764,45.707 89.549,49.574 C85.493,53.75 81.756,57.753 77.796,61.522 C77.124,62.161 75.494,61.793 74.307,61.891 C74.468,60.591 74.217,59.006 74.877,58.052 C76.158,56.199 77.951,54.701 79.717,52.863 C78.948,52.473 78.606,52.15 78.261,52.147 C73.596,52.103 68.928,52.036 64.267,52.178 C63.686,52.196 62.679,53.355 62.653,54.017 C62.498,57.844 62.611,61.68 62.561,65.513 C62.541,67.06 63.268,67.518 64.7,67.515 C75.533,67.488 86.365,67.469 97.198,67.529 C99.083,67.539 99.377,66.637 99.369,65.063 C99.327,57.064 99.35,49.064 99.353,41.065 C99.353,40.315 99.104,39.392 99.447,38.854 C100.037,37.929 101.004,37.244 101.812,36.458 C102.562,37.291 103.807,38.043 103.961,38.974 C104.295,41.003 104.118,43.125 104.062,45.206 C104.024,46.626 104.465,47.37 106.033,47.362 C113.366,47.324 120.699,47.311 128.031,47.372 C129.64,47.385 130.024,46.379 130.245,45.213 C132.111,35.365 141.777,28.054 152.641,29.547 C163.457,31.034 171.696,41.262 169.814,52.699 C168.368,61.487 163.025,66.647 154.988,69.349 C146.567,72.18 134.727,66.438 131.468,58.151 C131.106,57.232 130.672,56.321 130.464,55.365 C129.7,51.835 129.73,51.831 126.017,51.833 C119.601,51.836 113.183,51.924 106.769,51.791 C104.41,51.742 103.736,52.606 103.793,54.852 C103.919,59.848 103.766,64.852 103.865,69.849 C103.904,71.808 103.231,72.437 101.262,72.427 C87.763,72.356 74.264,72.343 60.765,72.435 C58.498,72.45 57.906,71.628 57.953,69.515 C58.066,64.518 57.917,59.515 58.021,54.517 C58.066,52.34 57.265,51.563 55.095,51.615 C50.358,51.726 45.618,51.648 41.438,51.648 L41.438,51.648 Z M36.169,49.773 C36.214,41.042 29.25,34.008 20.567,34.017 C12.321,34.025 5.129,41.184 5.028,49.483 C4.926,57.932 12.041,65.135 20.518,65.163 C29.211,65.193 36.125,58.394 36.169,49.773 L36.169,49.773 Z M149.843,64.92 C158.577,64.925 165.331,58.317 165.348,49.753 C165.365,41.147 158.443,34.232 149.827,34.25 C141.414,34.268 134.433,41.228 134.39,49.643 C134.347,58.092 141.248,64.915 149.843,64.92 L149.843,64.92 Z" id="Shape" fill="#37B597"></path>
                <path d="M79.934,0.286 C86.321,6.762 92.214,12.758 98.131,18.73 C102.586,23.227 107.073,27.692 111.546,32.171 C111.723,32.348 111.894,32.532 112.086,32.691 C113.498,33.857 114.099,35.714 113.016,36.858 C111.773,38.171 110.005,37.422 108.668,36.077 C99.917,27.277 91.134,18.508 82.357,9.734 C81.661,9.038 80.932,8.374 80.047,7.533 C79.264,8.244 78.581,8.815 77.954,9.441 C69.465,17.915 60.985,26.397 52.502,34.877 C52.266,35.113 52.005,35.327 51.797,35.585 C50.528,37.153 48.598,38.366 47.12,36.954 C45.621,35.523 46.89,33.683 48.318,32.268 C56.306,24.355 64.253,16.4 72.179,8.426 C74.696,5.894 77.109,3.258 79.934,0.286 L79.934,0.286 Z" id="Shape" fill="#37B597"></path>
                <path d="M36.169,49.773 C36.124,58.394 29.21,65.192 20.517,65.163 C12.04,65.135 4.925,57.932 5.027,49.483 C5.127,41.184 12.32,34.025 20.566,34.017 C29.25,34.008 36.215,41.042 36.169,49.773 L36.169,49.773 Z" id="Shape" fill="#FDFDFD"></path>
                <path d="M149.843,64.92 C141.248,64.915 134.347,58.093 134.39,49.643 C134.433,41.229 141.414,34.268 149.827,34.25 C158.442,34.232 165.365,41.147 165.348,49.753 C165.331,58.317 158.576,64.925 149.843,64.92 L149.843,64.92 Z" id="Shape" fill="#FDFDFD"></path>
            </g>
        </g>
    </g>
</svg>