<?xml version="1.0" encoding="UTF-8" standalone="no"?>
<svg width="63px" height="54px" viewBox="0 0 63 54" version="1.1" xmlns="http://www.w3.org/2000/svg" xmlns:xlink="http://www.w3.org/1999/xlink" xmlns:sketch="http://www.bohemiancoding.com/sketch/ns">
    <!-- Generator: Sketch 3.3.3 (12072) - http://www.bohemiancoding.com/sketch -->
    <title>list_active</title>
    <desc>Created with Sketch.</desc>
    <defs></defs>
    <g id="Page-1" stroke="none" stroke-width="1" fill="none" fill-rule="evenodd" sketch:type="MSPage">
        <g id="list_active" sketch:type="MSLayerGroup" transform="translate(0.500000, 0.000000)">
            <g id="Group" sketch:type="MSShapeGroup">
                <path d="M9.486,17.932 C10.701,18.526 11.427,18.869 12.142,19.233 C16.154,21.272 17.9,25.474 16.633,30.027 C15.72,33.307 12.063,35.637 8.023,35.513 C4.703,35.411 0.919,31.991 0.589,28.254 C0.199,23.841 -0.097,22.034 4.712,19.135 C6.261,18.201 6.233,17.422 4.501,16.579 C0.86,14.807 0.054,11.628 0.189,7.85 C0.309,4.478 2.221,2.49 4.873,1.089 C8.528,-0.841 13.445,-0.028 15.893,4.624 C17.875,8.39 16.701,13.827 13.23,15.926 C12.175,16.565 11.055,17.097 9.486,17.932 L9.486,17.932 Z M12.456,26.92 C12.432,24.637 10.544,22.653 8.446,22.704 C6.348,22.755 4.558,24.782 4.585,27.075 C4.612,29.343 6.528,31.352 8.605,31.291 C10.752,31.229 12.481,29.267 12.456,26.92 L12.456,26.92 Z M12.463,8.778 C12.447,6.411 10.696,4.587 8.479,4.626 C6.358,4.664 4.518,6.693 4.569,8.937 C4.621,11.223 6.252,12.865 8.498,12.894 C10.831,12.924 12.479,11.213 12.463,8.778 L12.463,8.778 Z" id="Shape" fill="#61B5A1"></path>
                <path d="M41.235,47.734 C35.407,47.734 29.577,47.657 23.752,47.776 C21.723,47.818 21.201,47.072 21.177,45.167 C21.152,43.126 21.981,42.625 23.862,42.645 C31.188,42.725 38.515,42.686 45.842,42.687 C50.4,42.688 54.959,42.739 59.515,42.65 C61.292,42.615 61.857,43.332 61.824,45.017 C61.791,46.671 61.429,47.744 59.469,47.729 C53.392,47.683 47.313,47.712 41.236,47.712 C41.235,47.72 41.235,47.727 41.235,47.734 L41.235,47.734 Z" id="Shape" fill="#61B5A1"></path>
                <path d="M41.489,6.539 C47.398,6.543 53.308,6.591 59.216,6.512 C60.897,6.49 61.604,6.963 61.618,8.745 C61.632,10.515 60.969,11.037 59.267,11.029 C47.449,10.976 35.63,10.976 23.812,11.018 C22.166,11.024 21.386,10.604 21.404,8.782 C21.421,7.037 22.041,6.48 23.762,6.503 C29.669,6.585 35.579,6.536 41.489,6.539 L41.489,6.539 Z" id="Shape" fill="#61B5A1"></path>
                <path d="M41.475,24.868 C47.294,24.871 53.113,24.882 58.932,24.862 C60.373,24.857 61.557,24.916 61.605,26.887 C61.655,28.954 60.499,29.133 58.898,29.13 C47.343,29.106 35.788,29.118 24.233,29.132 C22.708,29.134 21.423,29.062 21.413,26.96 C21.402,24.778 22.803,24.863 24.267,24.864 C30.004,24.867 35.74,24.866 41.475,24.868 L41.475,24.868 Z" id="Shape" fill="#61B5A1"></path>
                <path d="M16.604,45.346 C16.583,49.725 12.891,53.515 8.595,53.567 C4.357,53.618 0.402,49.54 0.443,45.161 C0.485,40.625 4.178,36.867 8.64,36.82 C12.917,36.774 16.626,40.745 16.604,45.346 L16.604,45.346 Z M12.455,45.152 C12.444,42.755 10.682,40.858 8.493,40.888 C6.405,40.917 4.566,42.976 4.586,45.262 C4.608,47.716 6.232,49.387 8.581,49.373 C10.888,49.359 12.467,47.639 12.455,45.152 L12.455,45.152 Z" id="Shape" fill="#61B5A1"></path>
                <path d="M12.456,26.92 C12.481,29.266 10.752,31.229 8.605,31.292 C6.527,31.353 4.612,29.344 4.585,27.076 C4.558,24.782 6.348,22.756 8.446,22.705 C10.544,22.653 12.431,24.637 12.456,26.92 L12.456,26.92 Z" id="Shape" fill="#FCFDFD"></path>
                <path d="M12.463,8.778 C12.479,11.213 10.831,12.924 8.497,12.894 C6.251,12.865 4.62,11.223 4.568,8.937 C4.517,6.693 6.357,4.665 8.478,4.626 C10.697,4.587 12.447,6.411 12.463,8.778 L12.463,8.778 Z" id="Shape" fill="#FCFDFD"></path>
                <path d="M12.455,45.152 C12.467,47.639 10.888,49.359 8.581,49.373 C6.232,49.387 4.608,47.716 4.586,45.262 C4.566,42.976 6.405,40.917 8.493,40.888 C10.682,40.858 12.444,42.754 12.455,45.152 L12.455,45.152 Z" id="Shape" fill="#FCFDFD"></path>
            </g>
        </g>
    </g>
</svg>