<?xml version="1.0" encoding="UTF-8" standalone="no"?>
<svg width="61px" height="52px" viewBox="0 0 61 52" version="1.1" xmlns="http://www.w3.org/2000/svg" xmlns:xlink="http://www.w3.org/1999/xlink" xmlns:sketch="http://www.bohemiancoding.com/sketch/ns">
    <!-- Generator: Sketch 3.3.3 (12072) - http://www.bohemiancoding.com/sketch -->
    <title>list_inactive</title>
    <desc>Created with Sketch.</desc>
    <defs></defs>
    <g id="Page-1" stroke="none" stroke-width="1" fill="none" fill-rule="evenodd" sketch:type="MSPage">
        <g id="list_inactive" sketch:type="MSLayerGroup">
            <g id="Group" sketch:type="MSShapeGroup">
                <path d="M40.629,42.538 C46.539,42.538 52.449,42.558 58.359,42.522 C59.651,42.514 60.957,42.671 60.705,44.217 C60.598,44.871 59.24,45.784 58.443,45.791 C46.541,45.894 34.637,45.861 22.734,45.872 C21.345,45.873 20.004,45.565 20.285,43.916 C20.383,43.339 21.815,42.614 22.65,42.598 C28.641,42.486 34.635,42.538 40.629,42.538 L40.629,42.538 Z" id="Shape" fill="#B5B5B5"></path>
                <path d="M40.369,9.46 C34.547,9.46 28.725,9.464 22.902,9.456 C21.764,9.454 20.151,9.676 20.406,8.004 C20.519,7.263 22.098,6.241 23.037,6.215 C28.771,6.051 34.513,6.138 40.252,6.138 C46.241,6.138 52.229,6.135 58.218,6.132 C59.546,6.131 61,6.272 60.678,8.011 C60.565,8.618 59.162,9.38 58.334,9.396 C52.347,9.515 46.357,9.46 40.369,9.46 L40.369,9.46 Z" id="Shape" fill="#B5B5B5"></path>
                <path d="M40.52,27.487 C34.615,27.487 28.71,27.496 22.806,27.478 C21.779,27.475 20.532,27.786 20.502,26.042 C20.473,24.331 21.654,24.515 22.727,24.514 C34.62,24.508 46.513,24.483 58.405,24.569 C59.206,24.575 60.623,25.376 60.68,25.919 C60.85,27.545 59.45,27.498 58.235,27.494 C52.33,27.478 46.425,27.488 40.52,27.487 L40.52,27.487 Z" id="Shape" fill="#B3B3B3"></path>
                <path d="M7.797,18.214 C11.539,18.254 15.344,22.041 15.38,25.761 C15.422,30.105 11.621,33.857 7.248,33.786 C3.367,33.723 0.047,29.894 0.172,25.626 C0.289,21.637 3.853,18.172 7.797,18.214 L7.797,18.214 Z M12.488,26.019 C12.497,23.516 10.243,21.054 7.929,21.04 C5.005,21.023 2.897,23.163 2.958,26.084 C3.016,28.835 4.941,30.835 7.613,30.919 C10.123,30.998 12.478,28.631 12.488,26.019 L12.488,26.019 Z" id="Shape" fill="#ACACAC"></path>
                <path d="M7.974,36.614 C8.301,36.622 8.628,36.63 8.955,36.637 C10.445,37.601 11.936,38.566 13.426,39.531 C13.495,39.654 13.537,39.786 13.552,39.927 C13.722,40.728 13.822,41.553 14.076,42.326 C15.153,45.6 13.712,48.036 11.28,49.882 C9.023,51.594 6.508,51.379 4.098,49.908 C3.764,49.704 3.336,49.654 2.952,49.533 C2.791,49.371 2.631,49.208 2.471,49.046 C2.222,48.353 2.022,47.638 1.716,46.971 C0.359,44.006 0.727,41.206 3.232,39.104 C4.567,37.982 6.377,37.425 7.974,36.614 L7.974,36.614 Z M10.423,48.444 C10.958,47.813 11.494,47.182 12.029,46.551 C12.161,45.067 12.293,43.583 12.425,42.099 C12.143,41.722 11.861,41.345 11.578,40.968 C10.896,40.451 10.214,39.933 9.531,39.416 C8.353,37.947 7.162,37.992 5.959,39.384 C5.123,40.083 4.288,40.782 3.452,41.481 C3.168,42.029 2.885,42.576 2.601,43.124 C2.605,43.411 2.609,43.698 2.613,43.985 C1.505,45.272 2.341,45.941 3.423,46.532 C4.263,47.242 5.103,47.953 5.944,48.663 C6.338,48.907 6.733,49.152 7.127,49.396 C7.54,49.394 7.953,49.392 8.366,49.39 C8.762,49.148 9.158,48.905 9.554,48.663 C9.844,48.589 10.133,48.517 10.423,48.444 L10.423,48.444 Z" id="Shape" fill="#9F9F9F"></path>
                <path d="M2.048,12.416 C-0.923,9.512 -0.485,4.863 3.049,1.793 C6.117,-0.872 11.206,-0.262 13.656,3.063 C16.041,6.3 15.942,9.788 13.369,13.153 C11.614,15.448 7.61,16.376 4.511,14.94 C3.529,14.485 2.884,13.304 2.084,12.456 C2.726,12.806 3.395,13.116 4.008,13.513 C7.441,15.733 12.38,14.31 13.86,10.658 C15.159,7.452 13.483,3.063 10.449,1.724 C7.01,0.206 3.638,1.6 1.695,4.998 C0.176,7.653 1.659,9.962 2.048,12.416 L2.048,12.416 Z" id="Shape" fill="#B9B9B9"></path>
                <path d="M2.951,49.533 C3.335,49.654 3.763,49.704 4.097,49.908 C6.507,51.379 9.023,51.594 11.279,49.882 C13.712,48.037 15.152,45.6 14.075,42.326 C13.821,41.553 13.721,40.728 13.551,39.927 C15.456,41.255 15.672,43.207 15.254,45.21 C14.65,48.105 13.254,50.508 10.194,51.442 C6.95,52.432 4.379,51.723 2.951,49.533 L2.951,49.533 Z" id="Shape" fill="#BBBBBB"></path>
                <path d="M7.974,36.614 C6.378,37.425 4.567,37.981 3.231,39.103 C0.726,41.205 0.358,44.005 1.715,46.97 C2.02,47.637 2.221,48.352 2.47,49.045 C-0.032,47.078 -0.605,44.166 0.862,40.868 C2.298,37.64 4.89,36.089 7.974,36.614 L7.974,36.614 Z" id="Shape" fill="#BBBBBB"></path>
                <path d="M13.426,39.531 C11.936,38.566 10.445,37.601 8.955,36.637 C10.966,36.797 12.757,37.297 13.426,39.531 L13.426,39.531 Z" id="Shape" fill="#BBBBBB"></path>
                <path d="M12.488,26.019 C12.478,28.631 10.124,30.998 7.614,30.919 C4.942,30.835 3.016,28.835 2.959,26.084 C2.898,23.163 5.006,21.023 7.93,21.04 C10.243,21.053 12.497,23.515 12.488,26.019 L12.488,26.019 Z" id="Shape" fill="#F5F5F5"></path>
                <path d="M9.531,39.416 C10.213,39.933 10.895,40.451 11.577,40.968 C11.859,41.345 12.142,41.722 12.424,42.099 C12.292,43.583 12.16,45.067 12.028,46.551 C11.493,47.182 10.957,47.813 10.422,48.444 C10.133,48.517 9.844,48.59 9.554,48.661 C9.158,48.903 8.762,49.146 8.366,49.389 C7.953,49.391 7.54,49.393 7.126,49.396 C6.731,49.152 6.338,48.907 5.944,48.662 C5.104,47.952 4.263,47.241 3.424,46.53 C3.154,45.681 2.884,44.832 2.613,43.983 C2.609,43.696 2.605,43.409 2.6,43.122 C2.883,42.574 3.167,42.027 3.451,41.48 C4.287,40.781 5.122,40.082 5.958,39.384 C7.15,39.395 8.341,39.405 9.531,39.416 L9.531,39.416 Z" id="Shape" fill="#F6F6F6"></path>
                <path d="M9.531,39.416 C8.34,39.406 7.15,39.395 5.959,39.384 C7.163,37.992 8.354,37.947 9.531,39.416 L9.531,39.416 Z" id="Shape" fill="#BABABA"></path>
                <path d="M2.614,43.983 C2.884,44.832 3.155,45.681 3.425,46.53 C2.343,45.94 1.506,45.271 2.614,43.983 L2.614,43.983 Z" id="Shape" fill="#BABABA"></path>
                <path d="M10.423,48.444 C10.958,47.813 11.493,47.181 12.029,46.551 C11.493,47.182 10.958,47.813 10.423,48.444 L10.423,48.444 Z" id="Shape" fill="#BABABA"></path>
                <path d="M3.453,41.48 C3.169,42.027 2.885,42.574 2.602,43.122 C2.885,42.575 3.169,42.027 3.453,41.48 L3.453,41.48 Z" id="Shape" fill="#BABABA"></path>
                <path d="M12.425,42.099 C12.142,41.722 11.86,41.345 11.578,40.968 C11.86,41.345 12.142,41.722 12.425,42.099 L12.425,42.099 Z" id="Shape" fill="#BABABA"></path>
                <path d="M5.945,48.662 C6.339,48.907 6.732,49.152 7.127,49.396 C6.734,49.151 6.34,48.906 5.945,48.662 L5.945,48.662 Z" id="Shape" fill="#BABABA"></path>
                <path d="M8.367,49.389 C8.763,49.146 9.159,48.903 9.555,48.661 C9.159,48.905 8.763,49.147 8.367,49.389 L8.367,49.389 Z" id="Shape" fill="#BABABA"></path>
                <path d="M2.048,12.416 C1.659,9.963 0.177,7.653 1.695,4.997 C3.638,1.599 7.01,0.206 10.449,1.723 C13.483,3.062 15.159,7.452 13.86,10.657 C12.38,14.309 7.441,15.732 4.008,13.512 C3.395,13.116 2.726,12.805 2.084,12.455 C2.085,12.455 2.048,12.416 2.048,12.416 L2.048,12.416 Z M3.979,4.488 C0.968,6.768 1.51,10.9 5.028,12.485 C8.277,13.598 9.764,13.174 11.997,10.498 C12.168,10.166 12.338,9.834 12.509,9.502 C12.516,8.499 12.522,7.497 12.529,6.494 C12.373,6.152 12.218,5.81 12.062,5.468 C11.386,4.78 10.71,4.093 10.035,3.405 C8.684,1.423 7.192,1.425 5.469,3.412 C4.972,3.771 4.475,4.13 3.979,4.488 L3.979,4.488 Z" id="Shape" fill="#9D9D9D"></path>
                <path d="M11.997,10.498 C9.765,13.174 8.278,13.598 5.028,12.485 C3.238,10.008 2.255,7.426 3.979,4.488 C4.475,4.13 4.972,3.771 5.468,3.413 C6.99,3.411 8.512,3.408 10.034,3.405 C10.71,4.093 11.386,4.78 12.061,5.468 C12.217,5.81 12.373,6.152 12.528,6.494 C12.521,7.497 12.515,8.499 12.508,9.502 C12.338,9.834 12.167,10.166 11.997,10.498 L11.997,10.498 Z" id="Shape" fill="#F6F6F6"></path>
                <path d="M3.979,4.488 C2.255,7.426 3.238,10.008 5.028,12.485 C1.51,10.901 0.968,6.768 3.979,4.488 L3.979,4.488 Z" id="Shape" fill="#B7B7B7"></path>
                <path d="M10.035,3.405 C8.513,3.408 6.991,3.411 5.469,3.413 C7.192,1.426 8.684,1.423 10.035,3.405 L10.035,3.405 Z" id="Shape" fill="#B7B7B7"></path>
                <path d="M11.997,10.498 C12.168,10.166 12.338,9.834 12.509,9.502 C12.338,9.834 12.167,10.166 11.997,10.498 L11.997,10.498 Z" id="Shape" fill="#B7B7B7"></path>
                <path id="Shape" fill="#B7B7B7" d="M12.529,6.494 C12.373,6.152 12.217,5.81 12.062,5.468 C12.218,5.81 12.373,6.152 12.529,6.494 L12.529,6.494 Z"></path>
            </g>
        </g>
    </g>
</svg>