<?xml version="1.0" encoding="UTF-8" standalone="no"?>
<svg width="52px" height="52px" viewBox="0 0 52 52" version="1.1" xmlns="http://www.w3.org/2000/svg" xmlns:xlink="http://www.w3.org/1999/xlink" xmlns:sketch="http://www.bohemiancoding.com/sketch/ns">
    <!-- Generator: Sketch 3.3.3 (12072) - http://www.bohemiancoding.com/sketch -->
    <title>radial_inactive</title>
    <desc>Created with Sketch.</desc>
    <defs></defs>
    <g id="Page-1" stroke="none" stroke-width="1" fill="none" fill-rule="evenodd" sketch:type="MSPage">
        <g id="radial_inactive" sketch:type="MSLayerGroup">
            <g id="Group" sketch:type="MSShapeGroup">
                <path d="M25.873,51.554 C12.145,52.336 0.397,39.777 0.242,26.13 C0.086,12.43 12.209,0.388 25.625,0.248 C40.024,0.098 51.723,12.576 51.774,25.854 C51.828,39.563 39.784,52.621 25.873,51.554 L25.873,51.554 Z M7.3,39.08 C8.514,36.649 9.279,34.638 10.439,32.89 C13.221,28.695 17.199,26.16 22.114,25.039 C23.254,24.779 24.576,24.683 24.549,22.829 C24.464,16.92 24.498,11.009 24.535,5.099 C24.543,3.742 23.877,3.212 22.692,3.479 C20.618,3.947 18.446,4.287 16.551,5.18 C8.655,8.901 4.123,15.224 3.152,23.881 C2.557,29.192 3.795,34.161 7.3,39.08 L7.3,39.08 Z M45.346,13.279 C45.023,13.318 44.701,13.357 44.378,13.397 C44.25,13.608 44.075,13.804 44.002,14.033 C41.672,21.36 36.559,25.497 29.197,27.232 C28.485,27.4 27.58,28.729 27.56,29.539 C27.419,35.272 27.515,41.011 27.467,46.747 C27.455,48.188 28.075,48.89 29.395,48.505 C32.143,47.704 35.077,47.132 37.51,45.73 C46.466,40.565 50.526,30.973 48.358,20.652 C47.82,18.096 46.374,15.732 45.346,13.279 L45.346,13.279 Z M24.518,38.132 C24.518,35.22 24.514,32.308 24.52,29.397 C24.523,28.05 24.026,27.254 22.55,27.721 C16.33,29.69 11.536,33.421 10.154,40.61 C10.002,41.402 10.223,42.616 10.757,43.132 C14.076,46.34 18.074,48.181 22.72,48.557 C24.228,48.679 24.555,47.928 24.531,46.619 C24.48,43.79 24.516,40.961 24.518,38.132 L24.518,38.132 Z M27.486,13.522 C27.486,16.515 27.502,19.508 27.48,22.501 C27.467,24.228 28.171,24.643 29.835,24.167 C35.438,22.564 39.234,19.017 41.156,13.59 C41.834,11.675 42.272,9.469 40.158,7.92 C37.057,5.648 33.704,4.049 29.839,3.37 C27.643,2.984 27.434,3.843 27.468,5.54 C27.521,8.2 27.482,10.861 27.486,13.522 L27.486,13.522 Z" id="Shape" fill="#B9B9B9"></path>
                <path d="M7.3,39.08 C3.795,34.161 2.557,29.191 3.152,23.881 C4.123,15.224 8.655,8.9 16.551,5.18 C18.446,4.287 20.619,3.947 22.692,3.479 C23.877,3.212 24.543,3.742 24.535,5.099 C24.498,11.009 24.463,16.92 24.549,22.829 C24.576,24.683 23.254,24.779 22.114,25.039 C17.199,26.16 13.221,28.695 10.439,32.89 C9.279,34.639 8.514,36.649 7.3,39.08 L7.3,39.08 Z" id="Shape" fill="#FEFEFE"></path>
                <path d="M45.346,13.279 C46.374,15.731 47.82,18.096 48.357,20.651 C50.525,30.973 46.465,40.565 37.509,45.729 C35.076,47.132 32.142,47.703 29.394,48.504 C28.075,48.889 27.454,48.187 27.466,46.746 C27.515,41.01 27.419,35.271 27.559,29.538 C27.579,28.728 28.484,27.399 29.196,27.231 C36.559,25.496 41.671,21.359 44.001,14.032 C44.074,13.803 44.249,13.607 44.377,13.396 C44.701,13.358 45.023,13.319 45.346,13.279 L45.346,13.279 Z" id="Shape" fill="#FEFEFE"></path>
                <path d="M24.517,38.132 C24.516,40.961 24.48,43.79 24.531,46.618 C24.555,47.927 24.228,48.678 22.72,48.556 C18.073,48.18 14.076,46.34 10.757,43.131 C10.223,42.615 10.002,41.401 10.154,40.609 C11.536,33.42 16.33,29.69 22.55,27.72 C24.026,27.253 24.523,28.049 24.52,29.396 C24.514,32.308 24.518,35.22 24.517,38.132 L24.517,38.132 Z" id="Shape" fill="#FEFEFE"></path>
                <path d="M27.484,13.522 C27.482,10.861 27.522,8.2 27.468,5.541 C27.434,3.843 27.644,2.985 29.839,3.371 C33.704,4.05 37.057,5.649 40.158,7.921 C42.272,9.47 41.835,11.676 41.156,13.591 C39.234,19.018 35.438,22.565 29.835,24.168 C28.171,24.644 27.467,24.229 27.48,22.502 C27.502,19.508 27.486,16.515 27.484,13.522 L27.484,13.522 Z" id="Shape" fill="#FEFEFE"></path>
            </g>
        </g>
    </g>
</svg>