<?xml version="1.0" encoding="UTF-8" standalone="no"?>
<svg width="54px" height="54px" viewBox="0 0 54 54" version="1.1" xmlns="http://www.w3.org/2000/svg" xmlns:xlink="http://www.w3.org/1999/xlink" xmlns:sketch="http://www.bohemiancoding.com/sketch/ns">
    <!-- Generator: Sketch 3.3.3 (12072) - http://www.bohemiancoding.com/sketch -->
    <title>radial_active</title>
    <desc>Created with Sketch.</desc>
    <defs></defs>
    <g id="Page-1" stroke="none" stroke-width="1" fill="none" fill-rule="evenodd" sketch:type="MSPage">
        <g id="radial_active" sketch:type="MSLayerGroup">
            <g id="Group" sketch:type="MSShapeGroup">
                <path d="M27.042,0.483 C41.433,0.251 53.602,12.097 53.54,27.104 C53.481,41.577 41.628,53.508 27.237,53.534 C12.085,53.562 0.639,41.774 0.412,27.288 C0.178,12.313 13.024,0.035 27.042,0.483 L27.042,0.483 Z M8.035,38.82 C8.725,37.432 9.145,36.532 9.613,35.658 C12.476,30.306 16.906,26.878 22.776,25.55 C24.619,25.133 25.05,24.381 25.033,22.732 C24.979,17.494 25.029,12.254 24.999,7.015 C24.985,4.615 24.461,4.318 22.118,4.902 C11.288,7.603 3.336,17.329 4.565,29.567 C4.886,32.757 5.714,35.842 8.035,38.82 L8.035,38.82 Z M46.122,15.521 C45.504,16.505 45.119,17.023 44.831,17.59 C41.878,23.392 37.496,27.318 30.93,28.649 C30.15,28.807 29.09,30.197 29.064,31.045 C28.902,36.283 28.976,41.529 29.02,46.772 C29.037,48.82 29.914,49.472 32.054,48.888 C41.829,46.223 47.52,39.801 49.288,30 C50.181,25.054 49.069,20.295 46.122,15.521 L46.122,15.521 Z M29.536,14.503 C29.536,17.083 29.566,19.663 29.526,22.242 C29.497,24.132 30.281,24.695 31.989,23.883 C36.763,21.613 40.381,18.362 41.74,12.97 C42.164,11.285 41.732,10.011 40.449,9.329 C37.623,7.826 34.676,6.535 31.716,5.308 C30.276,4.711 29.527,5.473 29.537,7.015 C29.554,9.51 29.542,12.006 29.536,14.503 L29.536,14.503 Z M24.456,39.235 C24.456,36.905 24.448,34.575 24.459,32.245 C24.467,30.6 24.098,29.702 22.096,30.385 C17.163,32.068 13.957,35.356 12.582,40.336 C12.282,41.423 12.123,43.28 12.721,43.761 C15.533,46.025 18.404,48.372 22.342,48.482 C23.839,48.524 24.486,47.964 24.464,46.474 C24.427,44.061 24.453,41.648 24.456,39.235 L24.456,39.235 Z" id="Shape" fill="#43AB90"></path>
                <path d="M8.035,38.82 C5.714,35.842 4.886,32.757 4.565,29.567 C3.336,17.329 11.288,7.603 22.118,4.902 C24.461,4.318 24.985,4.615 24.999,7.015 C25.029,12.254 24.979,17.493 25.033,22.732 C25.05,24.381 24.619,25.133 22.776,25.55 C16.906,26.877 12.476,30.306 9.613,35.658 C9.146,36.532 8.726,37.432 8.035,38.82 L8.035,38.82 Z" id="Shape" fill="#FCFDFD"></path>
                <path d="M46.122,15.521 C49.069,20.295 50.18,25.054 49.288,30 C47.52,39.8 41.829,46.222 32.054,48.888 C29.913,49.472 29.037,48.82 29.02,46.772 C28.977,41.529 28.902,36.283 29.064,31.045 C29.09,30.198 30.149,28.807 30.93,28.649 C37.496,27.318 41.878,23.392 44.831,17.59 C45.12,17.023 45.504,16.505 46.122,15.521 L46.122,15.521 Z" id="Shape" fill="#FCFDFD"></path>
                <path d="M29.539,14.503 C29.542,12.007 29.554,9.51 29.537,7.014 C29.527,5.473 30.276,4.711 31.716,5.307 C34.676,6.534 37.623,7.826 40.449,9.328 C41.732,10.01 42.164,11.284 41.74,12.969 C40.382,18.361 36.764,21.612 31.989,23.882 C30.281,24.694 29.497,24.132 29.526,22.241 C29.566,19.663 29.536,17.082 29.539,14.503 L29.539,14.503 Z" id="Shape" fill="#FCFDFD"></path>
                <path d="M24.455,39.235 C24.454,41.648 24.428,44.062 24.464,46.474 C24.486,47.964 23.839,48.524 22.342,48.482 C18.404,48.372 15.533,46.025 12.721,43.761 C12.123,43.279 12.281,41.423 12.582,40.336 C13.958,35.356 17.163,32.068 22.096,30.385 C24.098,29.702 24.467,30.601 24.459,32.245 C24.447,34.575 24.456,36.905 24.455,39.235 L24.455,39.235 Z" id="Shape" fill="#FCFDFD"></path>
            </g>
        </g>
    </g>
</svg>