<?xml version="1.0" encoding="UTF-8" standalone="no"?>
<svg width="105px" height="52px" viewBox="0 0 105 52" version="1.1" xmlns="http://www.w3.org/2000/svg" xmlns:xlink="http://www.w3.org/1999/xlink" xmlns:sketch="http://www.bohemiancoding.com/sketch/ns">
    <!-- Generator: Sketch 3.3.3 (12072) - http://www.bohemiancoding.com/sketch -->
    <title>receiver</title>
    <desc>Created with Sketch.</desc>
    <defs></defs>
    <g id="Page-1" stroke="none" stroke-width="1" fill="none" fill-rule="evenodd" sketch:type="MSPage">
        <g id="receiver" sketch:type="MSLayerGroup" transform="translate(0.433594, -0.156250)">
            <g id="Group" sketch:type="MSShapeGroup">
                <path d="M34.169,27.23 C32.368,27.148 31.404,27.068 30.44,27.066 C21.278,27.052 12.116,27.058 2.953,27.039 C1.843,27.037 0.503,27.372 0.461,25.495 C0.419,23.613 1.644,23.614 2.971,23.615 C11.967,23.622 20.962,23.616 29.958,23.614 L33.554,23.614 C32.618,22.402 32.193,21.746 31.665,21.187 C29.437,18.827 27.164,16.509 24.938,14.147 C24.07,13.226 22.575,12.332 24.012,10.856 C25.669,9.154 26.534,11.056 27.399,11.915 C30.706,15.2 33.824,18.679 37.199,21.889 C38.162,22.805 39.727,23.438 41.066,23.539 C44.213,23.776 47.395,23.507 50.554,23.648 C52.694,23.744 53.563,23.077 53.464,20.833 C53.313,17.425 53.387,14.004 53.44,10.59 C53.522,5.305 58.186,0.533 63.505,0.492 C73.833,0.412 84.162,0.404 94.489,0.5 C99.76,0.549 104.498,5.416 104.523,10.663 C104.573,20.741 104.577,30.82 104.519,40.898 C104.485,46.836 99.802,51.51 93.902,51.535 C83.824,51.578 73.745,51.578 63.667,51.536 C58.186,51.513 53.495,46.828 53.43,41.38 C53.384,37.549 53.358,33.716 53.448,29.886 C53.495,27.886 52.799,26.863 50.71,27.051 C50.627,27.058 50.543,27.052 50.46,27.051 C39.603,26.873 39.602,26.872 31.899,34.594 C30.371,36.126 28.876,37.691 27.326,39.2 C26.394,40.108 25.41,41.425 23.998,40.005 C22.639,38.638 24.015,37.776 24.849,36.927 C27.241,34.49 29.678,32.098 32.078,29.669 C32.637,29.105 33.118,28.464 34.169,27.23 L34.169,27.23 Z M56.556,25.865 C56.556,30.529 56.541,35.193 56.56,39.857 C56.581,45.168 59.788,48.402 65.138,48.421 C74.383,48.454 83.627,48.457 92.872,48.418 C98.025,48.396 101.408,44.928 101.415,39.745 C101.428,30.584 101.426,21.422 101.408,12.261 C101.398,7.098 98.011,3.598 92.879,3.571 C83.551,3.523 74.223,3.522 64.895,3.576 C59.764,3.606 56.553,6.969 56.55,12.124 C56.549,16.704 56.55,21.284 56.556,25.865 L56.556,25.865 Z" id="Shape" fill="#50AB94"></path>
                <path d="M56.553,25.865 C56.55,21.284 56.549,16.704 56.551,12.123 C56.553,6.969 59.765,3.605 64.896,3.575 C74.224,3.52 83.552,3.521 92.88,3.57 C98.012,3.597 101.399,7.097 101.409,12.26 C101.427,21.421 101.429,30.583 101.416,39.744 C101.409,44.927 98.026,48.395 92.873,48.417 C83.629,48.456 74.384,48.454 65.139,48.42 C59.789,48.401 56.583,45.168 56.561,39.856 C56.541,35.193 56.556,30.529 56.553,25.865 L56.553,25.865 Z" id="Shape" fill="#FDFDFD"></path>
            </g>
        </g>
    </g>
</svg>