<?xml version="1.0" encoding="UTF-8" standalone="no"?>
<svg width="93px" height="54px" viewBox="0 0 93 54" version="1.1" xmlns="http://www.w3.org/2000/svg" xmlns:xlink="http://www.w3.org/1999/xlink" xmlns:sketch="http://www.bohemiancoding.com/sketch/ns">
    <!-- Generator: Sketch 3.3.3 (12072) - http://www.bohemiancoding.com/sketch -->
    <title>sender</title>
    <desc>Created with Sketch.</desc>
    <defs></defs>
    <g id="Page-1" stroke="none" stroke-width="1" fill="none" fill-rule="evenodd" sketch:type="MSPage">
        <g id="sender" sketch:type="MSLayerGroup">
            <g id="Group" sketch:type="MSShapeGroup">
                <path d="M84.457,23.807 C81.848,20.98 79.628,18.561 77.391,16.157 C76.6,15.307 75.601,14.597 75.015,13.629 C74.655,13.035 74.603,11.578 74.933,11.38 C75.677,10.935 77.191,10.573 77.613,10.982 C82.398,15.62 87.072,20.376 91.659,25.211 C92.132,25.709 92.267,27.32 91.861,27.739 C87.109,32.641 82.226,37.418 77.364,42.213 C77.084,42.489 76.683,42.641 76.369,42.832 C74.029,41.094 74.711,39.692 76.5,38.069 C79.089,35.721 81.493,33.169 83.96,30.69 C84.526,30.121 85.03,29.492 86.026,28.367 C84.582,28.234 83.751,28.092 82.919,28.09 C74.086,28.074 65.253,28.139 56.421,28.037 C54.234,28.012 53.48,28.688 53.56,30.893 C53.701,34.804 53.636,38.725 53.556,42.641 C53.432,48.728 48.586,53.482 42.498,53.502 C32.332,53.535 22.165,53.549 11.999,53.518 C5.363,53.497 0.504,48.632 0.488,42.035 C0.463,31.869 0.467,21.703 0.483,11.536 C0.493,5.514 5.643,0.335 11.629,0.327 C21.795,0.313 31.97,0.585 42.125,0.246 C49.291,0.007 54.145,6.071 54.066,12.125 C54.024,15.374 54.114,18.625 54.072,21.874 C54.051,23.485 54.573,24.404 56.339,24.399 C65.005,24.373 73.671,24.385 82.338,24.358 C82.796,24.356 83.252,24.129 84.457,23.807 L84.457,23.807 Z M27.071,4.467 C21.991,4.467 16.911,4.429 11.831,4.478 C7.014,4.524 4.507,7.034 4.481,11.914 C4.428,21.824 4.609,31.738 4.381,41.643 C4.264,46.732 8.069,49.826 12.17,49.892 C21.411,50.04 30.663,50.135 39.899,49.872 C47.189,49.664 49.923,47.189 49.989,41.309 C50.099,31.567 50.091,21.822 49.987,12.079 C49.947,8.293 47.47,4.211 42.309,4.423 C37.238,4.631 32.151,4.468 27.071,4.467 L27.071,4.467 Z" id="Shape" fill="#46A78E"></path>
                <path d="M27.071,4.468 C32.151,4.469 37.238,4.632 42.309,4.423 C47.47,4.211 49.947,8.293 49.987,12.079 C50.091,21.821 50.099,31.566 49.989,41.309 C49.923,47.189 47.189,49.665 39.899,49.872 C30.663,50.135 21.411,50.041 12.17,49.892 C8.069,49.826 4.264,46.732 4.381,41.643 C4.609,31.738 4.428,21.824 4.481,11.914 C4.507,7.033 7.014,4.524 11.831,4.478 C16.911,4.429 21.991,4.467 27.071,4.468 L27.071,4.468 Z" id="Shape" fill="#FBFDFD"></path>
            </g>
        </g>
    </g>
</svg>