<?xml version="1.0" encoding="UTF-8" standalone="no"?>
<svg width="116px" height="116px" viewBox="0 0 116 116" version="1.1" xmlns="http://www.w3.org/2000/svg" xmlns:xlink="http://www.w3.org/1999/xlink" xmlns:sketch="http://www.bohemiancoding.com/sketch/ns">
    <!-- Generator: Sketch 3.3.3 (12072) - http://www.bohemiancoding.com/sketch -->
    <title>c1</title>
    <desc>Created with Sketch.</desc>
    <defs></defs>
    <g id="Page-1" stroke="none" stroke-width="1" fill="none" fill-rule="evenodd" sketch:type="MSPage">
        <g id="c1" sketch:type="MSLayerGroup" transform="translate(0.156250, 0.160156)">
            <g id="Page-1" sketch:type="MSShapeGroup">
                <g id="c1">
                    <g id="Group">
                        <path d="M57.894,0.491 C89.363,-0.021 115.6,25.765 115.594,58.025 C115.588,91.154 88.101,115.908 56.9,115.423 C26.926,114.958 0.699,89.217 0.513,58.234 C0.329,27.622 26.06,-0.107 57.894,0.491 L57.894,0.491 L57.894,0.491 Z M58.238,11.518 C32.857,10.19 11.914,33.907 11.373,56.721 C10.755,82.741 33.335,103.85 56.665,104.492 C82.044,105.19 104.219,83.767 104.754,58.911 C105.302,33.395 82.619,10.189 58.238,11.518 L58.238,11.518 L58.238,11.518 Z" id="Shape" fill="#25B494"></path>
                        <path d="M58.238,11.518 C82.62,10.189 105.302,33.395 104.753,58.912 C104.218,83.768 82.043,105.191 56.664,104.493 C33.335,103.851 10.754,82.742 11.372,56.722 C11.914,33.907 32.857,10.19 58.238,11.518 L58.238,11.518 L58.238,11.518 Z M31.21,50.182 C31.21,56.599 31.174,63.015 31.224,69.432 C31.254,73.315 32.491,74.488 36.344,74.509 C39.177,74.525 42.012,74.569 44.843,74.494 C46.449,74.451 47.088,75.045 47.041,76.68 C46.957,79.594 46.995,82.513 47.032,85.429 C47.078,89.038 48.285,90.321 51.834,90.337 C61.167,90.378 70.5,90.385 79.833,90.337 C83.289,90.319 84.719,88.868 84.772,85.445 C84.833,81.529 84.789,77.612 84.79,73.695 C84.791,64.612 84.811,55.529 84.784,46.445 C84.773,42.597 83.671,41.516 79.9,41.492 C76.983,41.473 74.065,41.43 71.151,41.506 C69.534,41.548 68.911,40.931 68.96,39.308 C69.043,36.561 68.989,33.809 68.98,31.059 C68.966,26.615 68.007,25.655 63.501,25.65 C54.668,25.639 45.835,25.647 37.001,25.649 C32.49,25.65 31.239,26.87 31.216,31.432 C31.186,37.682 31.21,43.932 31.21,50.182 L31.21,50.182 L31.21,50.182 Z" id="Shape" fill="#FCFDFD"></path>
                        <path d="M31.21,50.182 C31.21,43.932 31.187,37.682 31.217,31.432 C31.239,26.87 32.491,25.65 37.002,25.649 C45.835,25.646 54.668,25.639 63.502,25.65 C68.007,25.655 68.967,26.615 68.981,31.059 C68.989,33.809 69.044,36.561 68.961,39.308 C68.912,40.93 69.535,41.547 71.152,41.506 C74.067,41.431 76.985,41.474 79.901,41.492 C83.672,41.516 84.774,42.597 84.785,46.445 C84.812,55.528 84.792,64.611 84.791,73.695 C84.79,77.612 84.834,81.529 84.773,85.445 C84.72,88.868 83.289,90.32 79.834,90.337 C70.501,90.384 61.168,90.378 51.835,90.337 C48.286,90.321 47.079,89.038 47.033,85.429 C46.996,82.513 46.959,79.594 47.042,76.68 C47.089,75.045 46.45,74.451 44.844,74.494 C42.013,74.569 39.178,74.525 36.345,74.509 C32.492,74.488 31.255,73.315 31.225,69.432 C31.174,63.015 31.21,56.598 31.21,50.182 L31.21,50.182 L31.21,50.182 Z M53.512,65.663 C53.512,70.827 53.56,75.992 53.484,81.155 C53.46,82.804 53.847,83.548 55.691,83.523 C62.437,83.431 69.185,83.444 75.931,83.515 C77.643,83.533 78.246,83.009 78.243,81.237 C78.225,70.915 78.296,60.593 78.384,50.272 C78.401,48.283 77.293,47.958 75.655,47.966 C69.075,48 62.494,48.033 55.915,47.946 C54.037,47.921 53.451,48.596 53.482,50.42 C53.571,55.5 53.513,60.582 53.512,65.663 L53.512,65.663 L53.512,65.663 Z M37.63,50.173 C37.63,54.085 37.629,57.996 37.63,61.908 C37.632,68.029 37.632,68.029 43.639,68.02 C47.017,68.015 47.021,68.015 47.022,64.738 C47.024,58.496 46.994,52.254 47.032,46.013 C47.051,42.79 48.291,41.531 51.313,41.492 C52.811,41.473 54.309,41.487 55.807,41.487 C62.763,41.486 62.763,41.486 62.488,34.469 C62.485,34.386 62.478,34.302 62.487,34.219 C62.633,32.898 61.999,32.49 60.733,32.497 C53.742,32.535 46.751,32.549 39.761,32.494 C38.13,32.481 37.584,33.082 37.606,34.694 C37.678,39.852 37.633,45.013 37.63,50.173 L37.63,50.173 L37.63,50.173 Z" id="Shape" fill="#25B494"></path>
                        <path d="M53.513,65.663 C53.513,60.582 53.571,55.5 53.483,50.421 C53.451,48.598 54.038,47.922 55.916,47.947 C62.495,48.034 69.076,48.001 75.656,47.967 C77.294,47.958 78.402,48.284 78.385,50.273 C78.297,60.594 78.226,70.916 78.244,81.238 C78.247,83.01 77.644,83.534 75.932,83.516 C69.186,83.445 62.438,83.432 55.692,83.524 C53.848,83.549 53.46,82.805 53.485,81.156 C53.561,75.992 53.512,70.827 53.513,65.663 L53.513,65.663 L53.513,65.663 Z" id="Shape" fill="#FCFDFD"></path>
                        <path d="M37.631,50.173 C37.632,45.013 37.678,39.853 37.605,34.694 C37.582,33.082 38.129,32.481 39.76,32.494 C46.75,32.549 53.741,32.535 60.732,32.497 C61.998,32.49 62.632,32.899 62.486,34.219 C62.477,34.301 62.483,34.385 62.487,34.469 C62.762,41.485 62.762,41.485 55.806,41.487 C54.308,41.487 52.81,41.473 51.312,41.492 C48.29,41.531 47.05,42.791 47.031,46.013 C46.994,52.255 47.024,58.496 47.021,64.738 C47.02,68.015 47.016,68.015 43.638,68.02 C37.632,68.029 37.631,68.029 37.629,61.908 C37.629,57.996 37.63,54.084 37.631,50.173 L37.631,50.173 L37.631,50.173 Z" id="Shape" fill="#FCFDFD"></path>
                    </g>
                </g>
            </g>
        </g>
    </g>
</svg>