<?xml version="1.0" encoding="UTF-8" standalone="no"?>
<svg width="115px" height="116px" viewBox="0 0 115 116" version="1.1" xmlns="http://www.w3.org/2000/svg" xmlns:xlink="http://www.w3.org/1999/xlink" xmlns:sketch="http://www.bohemiancoding.com/sketch/ns">
    <!-- Generator: Sketch 3.3.3 (12072) - http://www.bohemiancoding.com/sketch -->
    <title>c2</title>
    <desc>Created with Sketch.</desc>
    <defs></defs>
    <g id="Page-1" stroke="none" stroke-width="1" fill="none" fill-rule="evenodd" sketch:type="MSPage">
        <g id="c2" sketch:type="MSLayerGroup">
            <g id="Page-1" sketch:type="MSShapeGroup">
                <g id="c2">
                    <g id="Group">
                        <path d="M114.773,58.004 C116.128,89.325 88.403,115.962 56.243,115.254 C26.789,114.605 0.256,89.427 0.346,57.927 C0.433,27.314 24.719,0.588 57.521,0.518 C91.012,0.446 115.88,27.749 114.773,58.004 L114.773,58.004 L114.773,58.004 Z M11.191,57.687 C9.967,81.643 32.405,104.484 57.532,104.549 C81.146,104.61 104.139,84.851 104.49,58.763 C104.847,32.156 82.53,11.374 58.076,11.147 C31.795,10.903 10.342,34.417 11.191,57.687 L11.191,57.687 L11.191,57.687 Z" id="Shape" fill="#23B393"></path>
                        <path d="M11.191,57.687 C10.342,34.417 31.794,10.903 58.075,11.147 C82.53,11.374 104.847,32.156 104.489,58.763 C104.138,84.851 81.145,104.61 57.531,104.549 C32.406,104.484 9.967,81.643 11.191,57.687 L11.191,57.687 L11.191,57.687 Z M78.862,59.272 C78.803,58.852 78.67,57.997 78.563,57.138 C77.935,52.108 77.26,47.083 76.716,42.044 C76.512,40.151 75.795,38.619 73.838,38.613 C71.601,38.606 71.207,40.52 70.992,42.344 C70.848,43.566 70.669,44.783 70.506,46.003 C70.287,45.991 70.068,45.979 69.849,45.967 C69.769,45.266 69.665,44.566 69.613,43.863 C69.461,41.791 69.315,39.718 69.194,37.644 C69.08,35.69 68.091,34.873 66.121,34.937 C63.516,35.022 63.778,37.026 63.516,38.642 C63.328,39.798 63.346,40.988 63.273,42.163 C63.02,42.143 62.767,42.124 62.513,42.104 C62.46,41.198 62.412,40.291 62.352,39.386 C62.065,35.075 61.826,30.761 61.459,26.457 C61.325,24.888 60.679,23.413 58.766,23.461 C57.044,23.504 56.408,24.654 56.347,26.323 C56.258,28.73 56.033,31.133 55.828,33.535 C55.662,35.48 55.441,37.419 55.244,39.361 C55.032,39.341 54.82,39.321 54.607,39.302 C54.282,36.092 54.117,32.853 53.527,29.692 C53.367,28.836 51.984,27.726 51.055,27.613 C49.74,27.454 48.551,28.253 48.558,30.022 C48.568,32.471 48.509,34.926 48.346,37.369 C48.232,39.088 47.897,40.791 47.661,42.502 C46.911,42.114 46.68,41.764 46.664,41.404 C46.573,39.407 46.649,37.396 46.439,35.414 C46.271,33.828 45.524,32.609 43.591,32.566 C41.68,32.523 41.481,33.781 41.353,35.178 C41.025,38.738 40.721,42.301 40.362,45.858 C40.127,48.186 39.813,50.507 39.568,52.552 C38.168,51.881 36.977,50.809 36.061,51.007 C35.035,51.229 34.144,52.515 33.407,53.498 C32.837,54.258 32.617,55.275 32.202,56.159 C31.434,57.797 30.324,58.732 28.315,58.531 C26.418,58.341 24.479,58.596 22.572,58.462 C20.608,58.324 20.422,59.387 20.462,60.925 C20.502,62.424 20.378,63.733 22.587,63.668 C26.721,63.546 30.862,63.633 35.213,63.633 C35.89,68.127 36.667,72.952 37.321,77.794 C37.55,79.489 38.192,80.83 39.969,80.826 C41.916,80.822 42.547,79.355 42.648,77.57 C42.695,76.737 42.96,75.917 43.127,75.091 C43.425,75.116 43.722,75.14 44.02,75.165 C44.366,78.524 44.708,81.882 45.058,85.241 C45.23,86.896 45.156,88.863 47.548,88.823 C50.062,88.781 50.227,86.844 50.341,84.91 C50.415,83.654 50.685,82.41 50.868,81.16 C51.08,81.15 51.292,81.141 51.504,81.131 C51.792,82.035 52.186,82.922 52.341,83.849 C52.518,84.909 52.452,86.007 52.549,87.084 C52.693,88.676 53.506,90.086 55.138,89.748 C56.103,89.548 56.968,88.173 57.567,87.145 C57.941,86.502 57.728,85.521 57.793,84.693 C58.034,81.651 58.281,78.61 58.525,75.568 C58.767,75.575 59.009,75.582 59.251,75.59 C59.574,78.511 59.962,81.427 60.197,84.356 C60.332,86.047 60.438,87.668 62.657,87.647 C64.972,87.625 65.491,86.04 65.537,84.081 C65.569,82.72 65.709,81.361 65.801,80.001 C66.075,79.984 66.349,79.967 66.623,79.949 C66.881,82.01 67.207,84.065 67.378,86.133 C67.537,88.063 68.376,89.497 70.371,89.389 C72.273,89.286 72.817,87.643 72.941,85.946 C73.195,82.48 73.412,79.012 73.705,75.549 C73.748,75.034 74.118,74.547 74.372,73.966 C74.844,74.159 75.173,74.23 75.429,74.408 C78.218,76.34 79.25,76.05 80.639,72.868 C81.604,70.658 82.671,68.477 83.42,66.193 C84.007,64.404 85.07,63.928 86.782,63.99 C89.195,64.077 91.616,63.946 94.029,64.022 C96.599,64.103 96.103,62.318 96.213,60.771 C96.33,59.127 95.893,58.287 94.034,58.363 C91.206,58.479 88.365,58.293 85.539,58.427 C83.489,58.523 81.452,58.931 78.862,59.272 L78.862,59.272 L78.862,59.272 Z" id="Shape" fill="#FDFDFD"></path>
                        <path d="M78.862,59.272 C81.452,58.931 83.489,58.523 85.541,58.426 C88.367,58.292 91.208,58.478 94.036,58.362 C95.895,58.286 96.332,59.125 96.215,60.77 C96.105,62.316 96.601,64.102 94.031,64.021 C91.617,63.945 89.197,64.076 86.784,63.989 C85.072,63.927 84.008,64.403 83.422,66.192 C82.673,68.476 81.606,70.657 80.641,72.867 C79.252,76.049 78.219,76.339 75.431,74.407 C75.175,74.23 74.846,74.158 74.374,73.965 C74.12,74.546 73.75,75.033 73.707,75.548 C73.415,79.01 73.197,82.479 72.943,85.945 C72.819,87.642 72.275,89.285 70.373,89.388 C68.377,89.496 67.539,88.061 67.38,86.132 C67.209,84.064 66.884,82.009 66.625,79.948 C66.351,79.965 66.077,79.982 65.803,80 C65.711,81.36 65.571,82.719 65.539,84.08 C65.494,86.039 64.975,87.624 62.659,87.646 C60.44,87.667 60.334,86.046 60.199,84.355 C59.965,81.427 59.577,78.511 59.253,75.589 C59.011,75.582 58.769,75.575 58.527,75.567 C58.282,78.609 58.035,81.65 57.795,84.692 C57.729,85.52 57.943,86.501 57.569,87.144 C56.97,88.172 56.106,89.548 55.14,89.747 C53.508,90.084 52.695,88.675 52.551,87.083 C52.454,86.006 52.521,84.908 52.343,83.848 C52.188,82.921 51.794,82.035 51.506,81.13 C51.294,81.14 51.082,81.149 50.87,81.159 C50.688,82.409 50.417,83.653 50.343,84.909 C50.229,86.844 50.063,88.781 47.55,88.822 C45.158,88.861 45.232,86.895 45.06,85.24 C44.71,81.882 44.368,78.523 44.022,75.164 C43.724,75.139 43.427,75.115 43.129,75.09 C42.963,75.916 42.697,76.737 42.65,77.569 C42.549,79.353 41.918,80.82 39.971,80.825 C38.194,80.829 37.552,79.488 37.323,77.793 C36.669,72.951 35.893,68.126 35.215,63.632 C30.865,63.632 26.724,63.545 22.589,63.667 C20.38,63.732 20.503,62.424 20.464,60.924 C20.423,59.386 20.609,58.324 22.574,58.461 C24.481,58.595 26.42,58.34 28.317,58.53 C30.326,58.732 31.436,57.796 32.204,56.158 C32.618,55.274 32.839,54.257 33.409,53.497 C34.146,52.514 35.037,51.228 36.063,51.006 C36.979,50.808 38.169,51.881 39.57,52.551 C39.815,50.506 40.129,48.186 40.364,45.857 C40.723,42.3 41.028,38.737 41.355,35.177 C41.484,33.78 41.683,32.523 43.593,32.565 C45.526,32.608 46.273,33.827 46.441,35.413 C46.651,37.395 46.574,39.406 46.666,41.403 C46.682,41.763 46.913,42.113 47.663,42.501 C47.899,40.791 48.234,39.087 48.348,37.368 C48.51,34.925 48.569,32.47 48.56,30.021 C48.553,28.252 49.742,27.453 51.057,27.612 C51.986,27.724 53.369,28.835 53.529,29.691 C54.119,32.851 54.284,36.091 54.609,39.301 C54.821,39.321 55.033,39.341 55.246,39.36 C55.443,37.418 55.664,35.478 55.83,33.534 C56.035,31.132 56.26,28.729 56.349,26.322 C56.411,24.653 57.046,23.503 58.768,23.46 C60.681,23.412 61.327,24.887 61.461,26.456 C61.827,30.76 62.067,35.074 62.354,39.385 C62.414,40.291 62.462,41.197 62.515,42.103 C62.768,42.123 63.021,42.142 63.275,42.162 C63.349,40.987 63.331,39.797 63.518,38.641 C63.78,37.025 63.518,35.021 66.123,34.936 C68.093,34.872 69.082,35.688 69.196,37.643 C69.317,39.717 69.463,41.79 69.615,43.862 C69.667,44.565 69.771,45.265 69.851,45.966 C70.07,45.978 70.289,45.99 70.508,46.002 C70.671,44.783 70.849,43.565 70.994,42.343 C71.209,40.519 71.603,38.605 73.84,38.612 C75.798,38.618 76.514,40.15 76.718,42.043 C77.262,47.082 77.937,52.107 78.565,57.137 C78.669,57.997 78.802,58.852 78.862,59.272 L78.862,59.272 L78.862,59.272 Z M47.318,43.934 C47.282,43.932 47.245,43.93 47.209,43.927 C47.195,44.139 47.181,44.351 47.167,44.564 C47.204,44.566 47.241,44.569 47.279,44.571 C47.292,44.358 47.305,44.146 47.318,43.934 L47.318,43.934 L47.318,43.934 Z" id="Shape" fill="#23B393"></path>
                        <path id="Shape" fill="#FDFDFD" d="M47.318,43.934 C47.305,44.146 47.291,44.358 47.278,44.571 C47.241,44.569 47.204,44.566 47.166,44.564 C47.18,44.352 47.194,44.14 47.208,43.927 C47.245,43.929 47.282,43.932 47.318,43.934 L47.318,43.934 L47.318,43.934 Z"></path>
                    </g>
                </g>
            </g>
        </g>
    </g>
</svg>