<?xml version="1.0" encoding="UTF-8" standalone="no"?>
<svg width="116px" height="116px" viewBox="0 0 116 116" version="1.1" xmlns="http://www.w3.org/2000/svg" xmlns:xlink="http://www.w3.org/1999/xlink" xmlns:sketch="http://www.bohemiancoding.com/sketch/ns">
    <!-- Generator: Sketch 3.3.3 (12072) - http://www.bohemiancoding.com/sketch -->
    <title>c3</title>
    <desc>Created with Sketch.</desc>
    <defs></defs>
    <g id="Page-1" stroke="none" stroke-width="1" fill="none" fill-rule="evenodd" sketch:type="MSPage">
        <g id="c3" sketch:type="MSLayerGroup" transform="translate(0.500000, 0.000000)">
            <g id="Page-1" sketch:type="MSShapeGroup">
                <g id="c3">
                    <g id="Group">
                        <path d="M57.777,0.491 C89.153,0.177 115.068,26.11 115.111,57.952 C115.156,90.605 87.919,116.26 55.715,115.402 C26.759,114.631 -0.746,89.479 0.106,56.221 C0.838,27.612 25.122,-0.074 57.777,0.491 L57.777,0.491 L57.777,0.491 Z M57.611,104.49 C80.143,106.063 105.566,84.253 104.626,56.465 C103.842,33.292 83.063,10.199 56.101,10.949 C32.1,11.616 10.489,33.655 10.529,58.124 C10.57,83.237 33.678,105.854 57.611,104.49 L57.611,104.49 L57.611,104.49 Z" id="Shape" fill="#24B494"></path>
                        <path d="M57.611,104.49 C33.677,105.854 10.57,83.237 10.529,58.124 C10.49,33.655 32.101,11.616 56.101,10.949 C83.063,10.199 103.842,33.292 104.626,56.465 C105.567,84.254 80.143,106.064 57.611,104.49 L57.611,104.49 L57.611,104.49 Z M46.384,49.42 C46.638,48.391 46.742,47.582 47.035,46.849 C49.032,41.848 53.107,40.085 58.118,39.882 C63.117,39.679 67.328,41.439 69.423,46.079 C73.095,54.209 73.159,62.56 69.135,70.624 C66.552,75.8 62.019,77.944 56.018,77.116 C50.73,76.387 47.517,74.345 46.384,68.584 C46.264,67.972 45.209,67.127 44.561,67.103 C40.818,66.963 37.067,67.038 33.319,67.038 C31.999,67.038 31.553,67.658 31.821,68.955 C32.782,73.594 34.494,77.872 37.735,81.417 C45.915,90.365 60.892,92.422 71.988,85.897 C81.853,80.096 86.349,71.165 86.8,59.842 C87.434,43.912 78.426,30.292 62.593,27.969 C48.22,25.86 35.186,32.872 32.327,47.867 C32.196,48.556 31.147,49.169 30.402,49.608 C29.906,49.901 29.19,49.822 28.346,49.942 C28.672,50.612 28.784,51.12 29.092,51.435 C31.946,54.347 34.84,57.22 37.707,60.119 C38.71,61.133 39.544,60.882 40.454,59.954 C43.192,57.161 45.984,54.421 48.715,51.623 C49.109,51.219 49.288,50.606 49.682,49.877 C48.477,49.708 47.675,49.598 46.384,49.42 L46.384,49.42 L46.384,49.42 Z" id="Shape" fill="#FBFDFC"></path>
                        <path d="M46.384,49.42 C47.675,49.598 48.477,49.708 49.681,49.874 C49.288,50.603 49.108,51.217 48.714,51.62 C45.982,54.419 43.19,57.158 40.453,59.951 C39.543,60.879 38.709,61.131 37.706,60.116 C34.839,57.217 31.944,54.344 29.091,51.432 C28.782,51.117 28.67,50.61 28.345,49.939 C29.189,49.819 29.905,49.898 30.401,49.605 C31.146,49.166 32.195,48.553 32.326,47.864 C35.185,32.869 48.219,25.857 62.592,27.966 C78.425,30.289 87.433,43.909 86.799,59.839 C86.348,71.162 81.852,80.093 71.987,85.894 C60.891,92.419 45.914,90.361 37.734,81.414 C34.493,77.869 32.781,73.591 31.82,68.952 C31.551,67.655 31.998,67.036 33.318,67.035 C37.066,67.035 40.817,66.96 44.56,67.1 C45.208,67.124 46.262,67.969 46.383,68.581 C47.516,74.342 50.729,76.384 56.017,77.113 C62.018,77.941 66.551,75.797 69.134,70.621 C73.158,62.557 73.094,54.206 69.422,46.076 C67.327,41.436 63.115,39.676 58.117,39.879 C53.107,40.082 49.031,41.845 47.034,46.846 C46.742,47.582 46.638,48.391 46.384,49.42 L46.384,49.42 L46.384,49.42 Z" id="Shape" fill="#24B494"></path>
                    </g>
                </g>
            </g>
        </g>
    </g>
</svg>