<?xml version="1.0" encoding="UTF-8" standalone="no"?>
<svg width="115px" height="116px" viewBox="0 0 115 116" version="1.1" xmlns="http://www.w3.org/2000/svg" xmlns:xlink="http://www.w3.org/1999/xlink" xmlns:sketch="http://www.bohemiancoding.com/sketch/ns">
    <!-- Generator: Sketch 3.3.3 (12072) - http://www.bohemiancoding.com/sketch -->
    <title>c4</title>
    <desc>Created with Sketch.</desc>
    <defs></defs>
    <g id="Page-1" stroke="none" stroke-width="1" fill="none" fill-rule="evenodd" sketch:type="MSPage">
        <g id="c4" sketch:type="MSLayerGroup">
            <g id="Page-1" sketch:type="MSShapeGroup">
                <g id="c4">
                    <g id="Group">
                        <path d="M114.776,58.088 C115.548,90.41 88.209,114.828 58.364,115.253 C26.305,115.71 0.917,88.639 0.232,59.65 C-0.519,27.908 24.961,0.474 57.491,0.496 C89.832,0.518 115.559,26.671 114.776,58.088 L114.776,58.088 L114.776,58.088 Z M57.678,11.353 C33.323,9.894 10.652,32.522 10.646,57.923 C10.64,83.863 33.475,104.229 56.771,104.686 C81.056,105.163 104.037,84.201 104.529,59.188 C105.066,31.985 81.464,9.917 57.678,11.353 L57.678,11.353 L57.678,11.353 Z" id="Shape" fill="#24B494"></path>
                        <path d="M57.678,11.353 C81.463,9.917 105.065,31.986 104.53,59.188 C104.038,84.2 81.057,105.163 56.772,104.686 C33.475,104.229 10.641,83.863 10.647,57.923 C10.652,32.522 33.323,9.894 57.678,11.353 L57.678,11.353 L57.678,11.353 Z M19.371,61.823 C19.371,63.656 19.449,65.493 19.346,67.319 C19.268,68.698 19.802,69.391 21.067,69.921 C25.122,71.621 29.107,73.487 33.162,75.185 C33.741,75.428 34.624,75.254 35.26,75.004 C39.271,73.425 43.221,71.685 47.265,70.199 C48.295,69.821 49.729,69.831 50.745,70.24 C59.675,73.838 68.558,77.554 77.443,81.265 C79.363,82.067 81.195,82.339 83.197,81.417 C86.891,79.715 90.712,78.28 94.342,76.459 C95.276,75.99 96.203,74.524 96.262,73.467 C96.486,69.481 96.491,65.467 96.257,61.483 C96.196,60.449 95.185,59.062 94.231,58.57 C91.662,57.243 88.892,56.303 86.195,55.227 C84.535,54.565 83.436,53.7 83.582,51.576 C83.786,48.591 83.51,45.575 83.675,42.586 C83.784,40.613 83.101,39.569 81.274,38.827 C70.815,34.578 60.404,30.21 49.942,25.967 C49.13,25.638 47.947,25.692 47.119,26.025 C43.503,27.476 40.005,29.227 36.366,30.61 C33.702,31.622 32.578,33.188 32.974,36.063 C33.221,37.862 33.056,39.723 33.014,41.554 C32.822,50.064 34.55,47.756 26.458,51.231 C19.415,54.255 19.373,54.156 19.371,61.823 L19.371,61.823 L19.371,61.823 Z" id="Shape" fill="#FDFDFD"></path>
                        <path d="M19.37,61.823 C19.373,54.156 19.416,54.255 26.458,51.231 C34.55,47.756 32.822,50.064 33.014,41.554 C33.055,39.722 33.221,37.861 32.974,36.063 C32.578,33.188 33.702,31.622 36.366,30.61 C40.005,29.227 43.504,27.476 47.119,26.025 C47.947,25.693 49.13,25.638 49.942,25.967 C60.404,30.21 70.815,34.578 81.274,38.827 C83.101,39.569 83.784,40.614 83.675,42.586 C83.51,45.576 83.786,48.592 83.582,51.576 C83.437,53.7 84.535,54.566 86.195,55.227 C88.892,56.302 91.662,57.243 94.231,58.57 C95.184,59.062 96.196,60.45 96.257,61.483 C96.491,65.468 96.486,69.482 96.262,73.467 C96.202,74.524 95.276,75.99 94.342,76.459 C90.712,78.281 86.891,79.716 83.197,81.417 C81.195,82.339 79.363,82.067 77.443,81.265 C68.559,77.554 59.676,73.837 50.745,70.24 C49.729,69.831 48.295,69.821 47.265,70.199 C43.221,71.685 39.271,73.425 35.26,75.004 C34.624,75.254 33.742,75.428 33.162,75.185 C29.107,73.487 25.122,71.621 21.067,69.921 C19.802,69.391 19.268,68.698 19.346,67.319 C19.449,65.492 19.371,63.655 19.37,61.823 L19.37,61.823 L19.37,61.823 Z M52.515,56.9 C52.515,59.95 52.33,62.353 52.603,64.702 C52.717,65.683 53.603,67.004 54.483,67.396 C59.635,69.692 64.888,71.759 70.108,73.903 C72.675,74.957 75.242,76.011 78.484,77.341 C78.484,74.278 78.409,71.904 78.51,69.538 C78.578,67.951 77.921,67.115 76.482,66.552 C72.386,64.951 68.331,63.243 64.253,61.595 C60.575,60.109 56.887,58.647 52.515,56.9 L52.515,56.9 L52.515,56.9 Z M82.526,77.382 C85.936,75.935 88.748,74.768 91.528,73.531 C91.911,73.36 92.386,72.841 92.396,72.473 C92.468,69.611 92.436,66.747 92.436,63.479 C89.233,64.853 86.486,65.971 83.805,67.229 C83.253,67.488 82.611,68.252 82.584,68.812 C82.455,71.449 82.526,74.096 82.526,77.382 L82.526,77.382 L82.526,77.382 Z M87.443,60.68 C83.219,57.034 77.163,57.293 74.678,61.087 C78.595,64.483 82.889,64.381 87.443,60.68 L87.443,60.68 L87.443,60.68 Z" id="Shape" fill="#24B494"></path>
                        <path d="M52.515,56.9 C56.887,58.647 60.575,60.109 64.253,61.594 C68.331,63.242 72.386,64.95 76.482,66.551 C77.921,67.113 78.577,67.95 78.51,69.537 C78.409,71.903 78.484,74.277 78.484,77.34 C75.243,76.009 72.675,74.956 70.108,73.902 C64.889,71.758 59.635,69.691 54.483,67.395 C53.603,67.003 52.717,65.682 52.603,64.701 C52.33,62.353 52.515,59.95 52.515,56.9 L52.515,56.9 L52.515,56.9 Z" id="Shape" fill="#FDFDFD"></path>
                        <path d="M82.526,77.382 C82.526,74.096 82.455,71.449 82.583,68.812 C82.61,68.253 83.252,67.488 83.804,67.229 C86.485,65.971 89.232,64.853 92.435,63.479 C92.435,66.747 92.467,69.611 92.395,72.473 C92.386,72.841 91.911,73.36 91.527,73.531 C88.748,74.769 85.936,75.935 82.526,77.382 L82.526,77.382 L82.526,77.382 Z" id="Shape" fill="#FDFDFD"></path>
                        <path d="M87.443,60.68 C82.889,64.38 78.596,64.482 74.678,61.087 C77.163,57.293 83.218,57.034 87.443,60.68 L87.443,60.68 L87.443,60.68 Z" id="Shape" fill="#FDFDFD"></path>
                    </g>
                </g>
            </g>
        </g>
    </g>
</svg>