<?xml version="1.0" encoding="UTF-8" standalone="no"?>
<svg width="260px" height="92px" viewBox="0 0 260 92" version="1.1" xmlns="http://www.w3.org/2000/svg" xmlns:xlink="http://www.w3.org/1999/xlink" xmlns:sketch="http://www.bohemiancoding.com/sketch/ns">
    <!-- Generator: Sketch 3.3.3 (12072) - http://www.bohemiancoding.com/sketch -->
    <title>amicalogo</title>
    <desc>Created with Sketch.</desc>
    <defs></defs>
    <g id="Page-1" stroke="none" stroke-width="1" fill="none" fill-rule="evenodd" sketch:type="MSPage">
        <g id="amicalogo" sketch:type="MSLayerGroup">
            <g id="Group" sketch:type="MSShapeGroup">
                <path d="M0,92 L0,0 L260,0 L260,92 L0,92 L0,92 Z M118.789,44.981 C119.703,50.305 120.452,54.048 120.966,57.823 C121.528,61.946 123.456,63.277 127.724,61.316 C125.552,50.707 123.39,40.151 121.229,29.595 C120.824,29.599 120.419,29.603 120.014,29.607 C116.885,36.301 113.756,42.995 110.181,50.644 C106.622,42.971 103.477,36.192 100.332,29.414 C99.909,29.512 99.485,29.609 99.062,29.707 C96.945,40.3 94.829,50.893 92.715,61.476 C97.113,62.953 98.966,61.941 99.338,57.786 C99.682,53.949 100.713,50.173 101.642,45.322 C104.671,51.482 107.219,56.662 110.256,62.836 C113.309,56.446 115.726,51.389 118.789,44.981 L118.789,44.981 Z M186.438,27.74 C180.905,39.738 175.912,50.564 170.872,61.492 C175.069,62.936 177.557,62.132 178.54,58.45 C179.503,54.844 182.186,54.543 185.143,54.929 C188.424,55.358 192.73,53.091 194.284,58.329 C195.405,62.108 197.85,63.132 201.975,61.34 C196.946,50.462 191.971,39.705 186.438,27.74 L186.438,27.74 Z M58.92,61.47 C62.701,62.794 65.419,62.564 66.443,58.709 C67.459,54.883 70.21,54.565 73.393,54.911 C76.738,55.274 80.959,53.337 82.456,58.515 C83.583,62.414 86.206,62.873 90.088,61.438 C84.963,50.382 79.992,39.659 74.467,27.74 C68.913,39.792 63.947,50.566 58.92,61.47 L58.92,61.47 Z M167.818,54.439 C159.715,58.236 155.104,57.906 151.347,53.39 C148.295,49.722 148.053,43.758 150.8,39.872 C154.418,34.752 158.811,34.174 167.865,37.731 C168.754,34.407 168.978,31.63 164.801,30.299 C158.654,28.342 150.943,30.571 146.722,35.762 C142.166,41.365 141.634,48.844 145.362,54.891 C148.934,60.685 156.046,63.764 162.553,62.584 C167.1,61.76 169.549,59.753 167.818,54.439 L167.818,54.439 Z M132.121,28.615 C132.121,39.381 132.053,49.616 132.255,59.846 C132.271,60.634 134.21,62.01 135.216,61.976 C136.199,61.942 137.945,60.467 137.962,59.597 C138.156,49.518 138.086,39.435 138.086,29.085 C136.149,28.932 134.726,28.82 132.121,28.615 L132.121,28.615 Z" id="Shape" fill="#004581"></path>
                <path d="M118.789,44.981 C115.726,51.388 113.309,56.446 110.255,62.835 C107.219,56.661 104.671,51.481 101.641,45.321 C100.712,50.171 99.681,53.947 99.337,57.785 C98.965,61.94 97.112,62.952 92.714,61.475 C94.828,50.893 96.945,40.3 99.061,29.706 C99.484,29.608 99.908,29.511 100.331,29.413 C103.476,36.192 106.62,42.97 110.18,50.643 C113.755,42.994 116.884,36.3 120.013,29.606 C120.418,29.602 120.823,29.598 121.228,29.594 C123.389,40.15 125.551,50.706 127.723,61.315 C123.455,63.276 121.527,61.945 120.965,57.822 C120.451,54.048 119.703,50.306 118.789,44.981 L118.789,44.981 Z" id="Shape" fill="#FFFFFF"></path>
                <path d="M186.438,27.74 C191.971,39.705 196.945,50.462 201.975,61.339 C197.85,63.131 195.405,62.108 194.284,58.328 C192.73,53.09 188.423,55.357 185.143,54.928 C182.186,54.542 179.503,54.842 178.54,58.449 C177.557,62.132 175.069,62.936 170.872,61.491 C175.912,50.563 180.905,39.738 186.438,27.74 L186.438,27.74 Z M183.003,48.853 L189.877,48.853 C188.731,46.233 187.755,44.001 186.415,40.936 C185.051,44.102 184.102,46.302 183.003,48.853 L183.003,48.853 Z" id="Shape" fill="#FFFFFF"></path>
                <path d="M58.92,61.47 C63.947,50.566 68.913,39.792 74.469,27.74 C79.994,39.659 84.965,50.382 90.09,61.438 C86.207,62.873 83.585,62.414 82.458,58.515 C80.961,53.337 76.74,55.274 73.395,54.911 C70.211,54.566 67.461,54.883 66.445,58.709 C65.42,62.564 62.701,62.795 58.92,61.47 L58.92,61.47 Z M74.497,40.882 C73.129,44.035 72.168,46.251 71.113,48.684 L77.857,48.684 C76.76,46.138 75.863,44.057 74.497,40.882 L74.497,40.882 Z" id="Shape" fill="#FFFFFF"></path>
                <path d="M167.818,54.439 C169.549,59.753 167.1,61.76 162.553,62.585 C156.046,63.765 148.934,60.686 145.362,54.892 C141.634,48.845 142.166,41.366 146.722,35.763 C150.943,30.572 158.654,28.343 164.801,30.3 C168.979,31.63 168.755,34.408 167.865,37.732 C158.811,34.174 154.418,34.753 150.8,39.873 C148.053,43.76 148.295,49.724 151.347,53.391 C155.104,57.906 159.715,58.236 167.818,54.439 L167.818,54.439 Z" id="Shape" fill="#FFFFFF"></path>
                <path d="M132.121,28.615 C134.726,28.82 136.149,28.932 138.086,29.085 C138.086,39.435 138.156,49.518 137.962,59.597 C137.945,60.467 136.199,61.942 135.216,61.976 C134.21,62.011 132.271,60.635 132.255,59.846 C132.053,49.616 132.121,39.381 132.121,28.615 L132.121,28.615 Z" id="Shape" fill="#FFFFFF"></path>
                <path d="M183.003,48.853 C184.103,46.302 185.051,44.102 186.415,40.936 C187.755,44.001 188.731,46.233 189.877,48.853 L183.003,48.853 L183.003,48.853 Z" id="Shape" fill="#004581"></path>
                <path d="M74.497,40.882 C75.864,44.056 76.76,46.138 77.856,48.684 L71.112,48.684 C72.168,46.251 73.129,44.035 74.497,40.882 L74.497,40.882 Z" id="Shape" fill="#004581"></path>
            </g>
        </g>
    </g>
</svg>