<?xml version="1.0" encoding="UTF-8" standalone="no"?>
<svg width="385px" height="93px" viewBox="0 0 385 93" version="1.1" xmlns="http://www.w3.org/2000/svg" xmlns:xlink="http://www.w3.org/1999/xlink" xmlns:sketch="http://www.bohemiancoding.com/sketch/ns">
    <!-- Generator: Sketch 3.3.3 (12072) - http://www.bohemiancoding.com/sketch -->
    <title>fitbitlogo</title>
    <desc>Created with Sketch.</desc>
    <defs></defs>
    <g id="Page-1" stroke="none" stroke-width="1" fill="none" fill-rule="evenodd" sketch:type="MSPage">
        <g id="fitbitlogo" sketch:type="MSLayerGroup">
            <path d="M138.777402,32.8993784 L121.237255,32.8993784 L121.237255,24.3433784 C121.312745,14.4413919 123.951127,10.7628649 126.853725,8.87521622 C129.846283,6.9197027 134.404632,6.74124324 138.777402,6.78145946 C140.618105,6.78145946 142.103374,5.29408784 142.103374,3.45231081 C142.103374,1.61995946 140.618734,0.130074324 138.777402,0.130074324 C134.425392,0.165263514 128.549109,-0.018222973 123.293105,3.25374324 C117.947141,6.59357432 114.509191,13.3612095 114.578391,24.3446351 L114.578391,32.9006351 L107.72451,32.9006351 C105.88192,32.9006351 104.387843,34.3936622 104.387843,36.2228716 C104.387843,38.0564797 105.88192,39.5507635 107.72451,39.5507635 L114.578391,39.5507635 L114.578391,89.4044189 C114.578391,91.2355135 116.067435,92.7373378 117.910025,92.7373378 C119.753873,92.7373378 121.242917,91.2355135 121.242917,89.4044189 C121.241658,57.5248986 121.235368,55.3280878 121.235368,39.5507635 L138.775515,39.5507635 C140.613072,39.5507635 142.112181,38.0564797 142.112181,36.2228716 C142.11344,34.391777 140.61433,32.8993784 138.777402,32.8993784 L138.777402,32.8993784 Z M217.211716,86.0909797 L217.211716,86.0758986 C211.595874,86.1255405 207.070237,85.7887297 204.501054,83.8570946 C201.958292,82.0511351 199.699877,78.1036622 199.67031,68.0426959 C199.665278,53.7326351 199.662132,47.1158108 199.662132,39.6393649 L217.209199,39.6393649 C219.046757,39.6393649 220.540833,38.1475946 220.540833,36.311473 C220.540833,34.4766081 219.046757,32.9911216 217.209199,32.9911216 L199.662132,32.9911216 C199.662132,26.3661284 199.67031,17.814527 199.67031,3.45796622 C199.67031,1.61995946 198.172459,0.130074324 196.333644,0.130074324 C194.49357,0.130074324 193.01585,1.62058784 193.01585,3.45796622 L193.01585,32.9911216 L186.153162,32.9911216 C184.323154,32.9911216 182.829077,34.4772365 182.829077,36.311473 C182.829077,38.1475946 184.323154,39.6393649 186.153162,39.6393649 L193.01585,39.6393649 L193.01585,68.0426959 C192.976846,78.8715405 195.547917,85.6046149 200.621487,89.2636622 C205.682475,92.7869797 211.597132,92.6902095 217.211716,92.7367095 C219.048015,92.7367095 220.538946,91.2461959 220.538946,89.4037905 C220.538946,87.5664122 219.046757,86.0909797 217.211716,86.0909797 L217.211716,86.0909797 Z M370.344208,86.0978919 L370.344208,86.0828108 C363.158799,86.1324527 358.75143,85.3494932 356.627639,83.3820405 C354.439052,81.5754527 352.787704,77.3917095 352.799657,68.1834527 L352.799657,39.6387365 L370.341691,39.6387365 C372.188685,39.6387365 373.668292,38.1469662 373.668292,36.3108446 C373.668292,34.4759797 372.188056,32.9904932 370.341691,32.9904932 L352.798399,32.9904932 L352.798399,3.45168243 C352.798399,1.61367568 351.315645,0.132587838 349.477459,0.132587838 C347.635498,0.132587838 346.14268,1.61367568 346.14268,3.45168243 L346.14268,32.9904932 L339.285025,32.9904932 C337.442435,32.9904932 335.949616,34.4766081 335.949616,36.3108446 C335.949616,38.1469662 337.442435,39.6387365 339.285025,39.6387365 L346.14268,39.6387365 L346.14268,68.1834527 C346.16281,77.9069797 347.670098,84.3346622 352.272484,88.4065541 C356.940294,92.3370608 362.968186,92.6845541 370.343578,92.7360811 C372.179248,92.7360811 373.667663,91.2455676 373.667663,89.4138446 C373.668922,87.5733243 372.179248,86.0978919 370.344208,86.0978919 L370.344208,86.0978919 Z M158.959077,89.4031622 L158.959077,36.2253851 C158.959077,34.391777 160.453154,32.8993784 162.281904,32.8993784 C164.120719,32.8993784 165.614796,34.391777 165.614796,36.2253851 L165.614796,89.4031622 C165.614796,91.2336284 164.120719,92.7360811 162.281904,92.7360811 C160.453154,92.7360811 158.959077,91.2336284 158.959077,89.4031622 L158.959077,89.4031622 Z M313.505123,89.4031622 L313.505123,36.2253851 C313.505123,34.391777 314.982843,32.8993784 316.819771,32.8993784 C318.665507,32.8993784 320.154551,34.391777 320.154551,36.2253851 L320.154551,89.4031622 C320.154551,91.2336284 318.665507,92.7360811 316.819771,92.7360811 C314.982214,92.7360811 313.505123,91.2336284 313.505123,89.4031622 L313.505123,89.4031622 Z M267.373693,32.6769324 C257.879542,32.6825878 249.415833,37.0768378 243.894984,43.9305608 L243.894984,3.45733784 C243.894984,1.61933108 242.402794,0.132587838 240.567753,0.132587838 C238.730196,0.132587838 237.238007,1.61995946 237.238007,3.45733784 L237.238007,64.7814122 C237.238007,65.0170541 237.32482,65.2250473 237.375147,65.44875 C238.730196,80.8182568 251.628325,92.8699257 267.374951,92.8699257 C284.01299,92.8699257 297.496797,79.4044054 297.496797,62.7806554 C297.494281,46.1556486 284.011103,32.684473 267.373693,32.6769324 L267.373693,32.6769324 Z M267.373693,86.2204257 C254.404477,86.1952905 243.912598,75.7327905 243.894984,62.7812838 C243.912598,49.819723 254.405106,39.3540811 267.373693,39.3314595 C280.336618,39.3534527 290.817173,49.8190946 290.837933,62.7812838 C290.815915,75.7321622 280.335359,86.1946622 267.373693,86.2204257 L267.373693,86.2204257 Z" id="Shape" fill="#343333" sketch:type="MSShapeGroup"></path>
            <path d="M157.582639,19.5551351 C156.340825,18.3178581 155.633734,16.5992432 155.633734,14.8536081 C155.633734,13.1010608 156.341454,11.3899865 157.582639,10.1520811 C158.816904,8.91229054 160.533676,8.20536486 162.28442,8.20536486 C164.037051,8.20536486 165.750678,8.91229054 166.989975,10.1520811 C168.232418,11.3912432 168.940139,13.1016892 168.940139,14.8536081 C168.940139,16.5998716 168.232418,18.3191149 166.989975,19.5551351 C165.74942,20.7892703 164.037051,21.5049932 162.28442,21.5049932 C160.534935,21.5043649 158.816904,20.7886419 157.582639,19.5551351 L157.582639,19.5551351 Z M312.11799,19.5551351 C310.876176,18.3178581 310.16594,16.5992432 310.16594,14.8536081 C310.16594,13.1010608 310.876176,11.3899865 312.11799,10.1520811 C313.359804,8.91229054 315.072173,8.20536486 316.827949,8.20536486 C318.577435,8.20536486 320.287917,8.91229054 321.532247,10.1520811 C322.766511,11.3912432 323.478007,13.1016892 323.478007,14.8536081 C323.478007,16.5998716 322.766511,18.3191149 321.532247,19.5551351 C320.287917,20.7892703 318.578064,21.5049932 316.827949,21.5049932 C315.072173,21.5043649 313.358546,20.7886419 312.11799,19.5551351 L312.11799,19.5551351 Z M33.3232598,82.7951351 C32.3160948,81.7935 31.7518056,80.4098108 31.7518056,78.9940743 C31.7518056,77.5808514 32.3160948,76.1996757 33.3232598,75.1999257 C34.3272794,74.1982905 35.7100082,73.6252095 37.1279657,73.6252095 C38.5434069,73.6252095 39.929281,74.1982905 40.9314134,75.1999257 C41.9335458,76.1996757 42.5041258,77.5808514 42.5041258,78.9940743 C42.5041258,80.4098108 41.9335458,81.7935 40.9314134,82.7951351 C39.929281,83.7917432 38.5434069,84.3723649 37.1279657,84.3723649 C35.7112663,84.3717365 34.3279085,83.7917432 33.3232598,82.7951351 L33.3232598,82.7951351 Z" id="Shape" fill="#4AC1BF" sketch:type="MSShapeGroup"></path>
            <path d="M33.3232598,51.0777365 C32.3223856,50.0735878 31.7518056,48.6880135 31.7518056,47.2773041 C31.7518056,45.8603108 32.3223856,44.4778784 33.3232598,43.4762432 C34.324134,42.4783784 35.7100082,41.9052973 37.1241912,41.9052973 C38.5440359,41.9052973 39.9236193,42.4783784 40.9320425,43.4762432 C41.9341748,44.4778784 42.5047549,45.8603108 42.5047549,47.2773041 C42.5047549,48.6880135 41.9341748,50.0735878 40.9320425,51.0777365 C39.9236193,52.074973 38.5440359,52.6474257 37.1241912,52.6474257 C35.7112663,52.6474257 34.3247631,52.074973 33.3232598,51.0777365 L33.3232598,51.0777365 Z" id="Shape" fill="#343333" sketch:type="MSShapeGroup"></path>
            <path d="M33.3251471,19.3603378 C32.3286765,18.3543041 31.7536928,16.9750135 31.7536928,15.5636757 C31.7536928,14.1441689 32.3286765,12.7611081 33.3251471,11.7569595 C34.3247631,10.7603514 35.7106373,10.1948108 37.1260784,10.1948108 C38.5440359,10.1948108 39.9305392,10.7603514 40.9295261,11.7569595 C41.9335458,12.7611081 42.505384,14.1441689 42.505384,15.5636757 C42.505384,16.9743851 41.9329167,18.3543041 40.9295261,19.3603378 C39.9305392,20.3569459 38.5440359,20.930027 37.1260784,20.930027 C35.7112663,20.930027 34.3247631,20.3569459 33.3251471,19.3603378 L33.3251471,19.3603378 Z M33.184232,35.0685405 C32.2185866,34.0348581 31.7027369,32.6285473 31.7599837,31.2203514 C31.8115686,29.7945608 32.4356209,28.4391486 33.4767565,27.4758446 C34.5178922,26.5163108 35.9176062,26.0048108 37.3393382,26.0594797 C38.7472304,26.1110068 40.1154902,26.732473 41.0704412,27.7711824 C42.031683,28.8155473 42.5632598,30.2105473 42.5047549,31.6350811 C42.4506536,33.0445338 41.8196814,34.4024595 40.7798039,35.3663919 C39.7424428,36.3246689 38.3345507,36.846223 36.9222549,36.7953243 C35.5024101,36.740027 34.1448448,36.1053649 33.184232,35.0685405 L33.184232,35.0685405 Z M33.3251471,66.9361216 C32.3274183,65.9313446 31.7524346,64.5501689 31.7524346,63.1350608 C31.7524346,61.7180676 32.3280474,60.3368919 33.3251471,59.3358851 C34.3272794,58.3361351 35.7106373,57.7630541 37.1285948,57.7630541 C38.5440359,57.7630541 39.9299101,58.3361351 40.9295261,59.3358851 C41.9316585,60.3368919 42.505384,61.7180676 42.505384,63.1350608 C42.505384,64.5501689 41.9316585,65.9313446 40.9295261,66.9361216 C39.9305392,67.9283311 38.5440359,68.5058108 37.1285948,68.5058108 C35.7112663,68.5064392 34.3279085,67.9295878 33.3251471,66.9361216 L33.3251471,66.9361216 Z" id="Shape" fill="#4AC1BF" sketch:type="MSShapeGroup"></path>
            <path d="M49.2013644,51.0777365 C48.2036356,50.0735878 47.6267647,48.6880135 47.6267647,47.2773041 C47.6267647,45.8603108 48.2036356,44.4778784 49.2013644,43.4762432 C50.2034967,42.4783784 51.5881127,41.9052973 53.0048121,41.9052973 C54.4202533,41.9052973 55.7998366,42.4783784 56.8101471,43.4762432 C57.8110212,44.4778784 58.3847467,45.8603108 58.3847467,47.2773041 C58.3847467,48.6880135 57.8110212,50.0735878 56.8101471,51.0777365 C55.8004657,52.074973 54.4202533,52.6474257 53.0048121,52.6474257 C51.5881127,52.6474257 50.2041258,52.074973 49.2013644,51.0777365 L49.2013644,51.0777365 Z M49.2013644,35.2168378 C48.2036356,34.2202297 47.6311683,32.834027 47.6311683,31.4239459 C47.6311683,30.0025541 48.2030065,28.625777 49.2013644,27.6184865 C50.2034967,26.6243919 51.5944036,26.0563378 53.0048121,26.0563378 C54.4202533,26.0563378 55.8048693,26.6250203 56.8101471,27.6184865 C57.8110212,28.625777 58.3847467,30.0025541 58.3847467,31.4239459 C58.3847467,32.8346554 57.8110212,34.2202297 56.8101471,35.2168378 C55.8048693,36.2153311 54.4202533,36.7972095 53.0048121,36.7972095 C51.5944036,36.7972095 50.2041258,36.2153311 49.2013644,35.2168378 L49.2013644,35.2168378 Z M49.2013644,66.9361216 C48.2004902,65.9313446 47.6267647,64.5501689 47.6267647,63.1350608 C47.6267647,61.7180676 48.2004902,60.3368919 49.2013644,59.3358851 C50.2034967,58.3361351 51.5881127,57.7630541 53.0048121,57.7630541 C54.4246569,57.7630541 55.8073856,58.3361351 56.8101471,59.3358851 C57.8110212,60.3368919 58.3847467,61.7180676 58.3847467,63.1350608 C58.3847467,64.5501689 57.8110212,65.9313446 56.8101471,66.9361216 C55.8073856,67.9283311 54.4246569,68.5058108 53.0048121,68.5058108 C51.5881127,68.5064392 50.2041258,67.9295878 49.2013644,66.9361216 L49.2013644,66.9361216 Z M65.0775817,51.0777365 C64.0767075,50.0735878 63.5054984,48.6880135 63.5054984,47.2773041 C63.5054984,45.8603108 64.0760784,44.4778784 65.0775817,43.4762432 C66.0797141,42.4783784 67.4655882,41.9052973 68.8810294,41.9052973 C70.2977288,41.9052973 71.6836029,42.4783784 72.6857353,43.4762432 C73.6834641,44.4778784 74.2527859,45.8603108 74.2527859,47.2773041 C74.2527859,48.6880135 73.6834641,50.0735878 72.6857353,51.0777365 C71.6836029,52.074973 70.2977288,52.6474257 68.8810294,52.6474257 C67.4655882,52.6474257 66.0803431,52.074973 65.0775817,51.0777365 L65.0775817,51.0777365 Z M17.4445261,51.0777365 C16.4449101,50.0735878 15.8718137,48.6880135 15.8718137,47.2773041 C15.8718137,45.8603108 16.4455392,44.4778784 17.4445261,43.4762432 C18.4466585,42.4783784 19.8325327,41.9052973 21.2574101,41.9052973 C22.6653023,41.9052973 24.0492892,42.4783784 25.054567,43.4762432 C26.0510376,44.4778784 26.6272794,45.8603108 26.6272794,47.2773041 C26.6272794,48.6880135 26.0504085,50.0735878 25.054567,51.0777365 C24.0492892,52.074973 22.6653023,52.6474257 21.2574101,52.6474257 C19.8325327,52.6474257 18.4466585,52.074973 17.4445261,51.0777365 L17.4445261,51.0777365 Z" id="Shape" fill="#343333" sketch:type="MSShapeGroup"></path>
            <path d="M17.4501879,35.2168378 C16.4417647,34.2202297 15.8711846,32.834027 15.8711846,31.4239459 C15.8711846,30.0025541 16.4417647,28.625777 17.4501879,27.6184865 C18.4466585,26.6243919 19.8293873,26.0563378 21.2511193,26.0563378 C22.6653023,26.0563378 24.0492892,26.6250203 25.0526797,27.6184865 C26.0504085,28.625777 26.6272794,30.0025541 26.6272794,31.4239459 C26.6272794,32.8346554 26.0504085,34.2202297 25.0526797,35.2168378 C24.0486601,36.2153311 22.6646732,36.7972095 21.2511193,36.7972095 C19.8300163,36.7972095 18.4466585,36.2153311 17.4501879,35.2168378 L17.4501879,35.2168378 Z M17.4445261,66.9361216 C16.4449101,65.9313446 15.8787337,64.5501689 15.8787337,63.1350608 C15.8787337,61.7180676 16.4449101,60.3368919 17.4445261,59.3358851 C18.4466585,58.3361351 19.8300163,57.7630541 21.2523775,57.7630541 C22.6678186,57.7630541 24.054951,58.3361351 25.0558252,59.3358851 C26.0585866,60.3368919 26.631683,61.7180676 26.631683,63.1350608 C26.631683,64.5501689 26.0579575,65.9313446 25.0558252,66.9361216 C24.054951,67.9283311 22.6678186,68.5058108 21.2523775,68.5058108 C19.8300163,68.5064392 18.4466585,67.9295878 17.4445261,66.9361216 L17.4445261,66.9361216 Z" id="Shape" fill="#4AC1BF" sketch:type="MSShapeGroup"></path>
            <path d="M1.57271242,51.0777365 C0.567434641,50.0735878 0,48.6880135 0,47.2773041 C0,45.8603108 0.567434641,44.4778784 1.57271242,43.4762432 C2.57673203,42.4783784 3.96071895,41.9052973 5.37616013,41.9052973 C6.79034314,41.9052973 8.17873366,42.4783784 9.17834967,43.4762432 C10.1773366,44.4778784 10.7498039,45.8603108 10.7498039,47.2773041 C10.7498039,48.6880135 10.1773366,50.0735878 9.17834967,51.0777365 C8.17873366,52.074973 6.79034314,52.6474257 5.37616013,52.6474257 C3.96134804,52.6474257 2.57673203,52.074973 1.57271242,51.0777365 L1.57271242,51.0777365 Z M381.710515,92.7360811 C381.251912,92.7360811 380.822876,92.6506216 380.424665,92.4784459 C380.027083,92.3056419 379.680458,92.0718851 379.387304,91.7771757 C379.094779,91.4805811 378.863905,91.1362297 378.694052,90.7409797 C378.525458,90.3463581 378.440531,89.9247162 378.440531,89.4785676 L378.440531,89.4616014 C378.440531,89.0148243 378.526087,88.5944392 378.694052,88.1991892 C378.863905,87.8045676 379.096667,87.4570743 379.392966,87.1579662 C379.688007,86.8594865 380.03652,86.6232162 380.437876,86.448527 C380.839232,86.2738378 381.269526,86.1858649 381.730016,86.1858649 C382.18799,86.1858649 382.617026,86.2713243 383.015237,86.4441284 C383.412819,86.6163041 383.759444,86.8488041 384.052598,87.1447703 C384.345123,87.4413649 384.575997,87.7863446 384.74585,88.1797095 C384.914444,88.5755878 384.999371,88.995973 384.999371,89.4433784 L384.999371,89.460973 C384.999371,89.9071216 384.913815,90.3281351 384.74585,90.7227568 C384.575997,91.1173784 384.343235,91.4648716 384.048824,91.762723 C383.751895,92.0612027 383.403382,92.2987297 383.002026,92.4734189 C382.600041,92.6493649 382.171005,92.7360811 381.710515,92.7360811 L381.710515,92.7360811 Z M381.710515,92.4564527 C382.13326,92.4564527 382.527067,92.3760203 382.892565,92.2164122 C383.257435,92.0561757 383.574493,91.8412703 383.843742,91.5691824 C384.111732,91.2983514 384.323105,90.9816486 384.472827,90.6190743 C384.624436,90.2577568 384.699926,89.8713041 384.699926,89.4616014 L384.699926,89.4446351 C384.699926,89.0336757 384.624436,88.647223 384.472827,88.285277 C384.323105,87.9233311 384.114877,87.6085135 383.848145,87.3395676 C383.582672,87.0718784 383.268758,86.8576014 382.906405,86.7017635 C382.54531,86.5440405 382.151503,86.46675 381.729387,86.46675 C381.300351,86.46675 380.905286,86.5478108 380.542933,86.7061622 C380.18058,86.867027 379.865408,87.0819324 379.59616,87.3521351 C379.326912,87.6248514 379.116797,87.9415541 378.966446,88.3022432 C378.814837,88.6648176 378.739975,89.0500135 378.739975,89.4616014 L378.739975,89.4785676 C378.739975,89.889527 378.814837,90.2759797 378.966446,90.6379257 C379.116797,90.9986149 379.325025,91.3128041 379.591757,91.5830068 C379.85723,91.8513243 380.171144,92.0637162 380.533497,92.2214392 C380.89585,92.377277 381.289657,92.4564527 381.710515,92.4564527 L381.710515,92.4564527 Z M380.434101,87.6883176 L381.937614,87.6883176 C382.148358,87.6883176 382.340229,87.7191081 382.513227,87.7825743 C382.684967,87.8460405 382.825253,87.9321284 382.934714,88.0402095 C383.019011,88.1193851 383.085065,88.2123851 383.134134,88.3210946 C383.181944,88.4291757 383.206479,88.5523378 383.206479,88.6924662 L383.206479,88.7094324 C383.206479,88.9802635 383.124698,89.1976824 382.961765,89.3598041 C382.798832,89.5238108 382.589975,89.6350338 382.336454,89.6953581 L383.378848,91.0432297 L382.762974,91.0432297 L381.794183,89.7757905 L380.933595,89.7757905 L380.933595,91.0432297 L380.435989,91.0432297 L380.435989,87.6876892 L380.434101,87.6876892 L380.434101,87.6883176 Z M381.892949,89.3340405 C382.128227,89.3340405 382.320098,89.2831419 382.467933,89.1794595 C382.616397,89.0776622 382.690629,88.9293649 382.690629,88.7364527 L382.690629,88.7194865 C382.690629,88.5447973 382.623317,88.4040405 382.487435,88.2978446 C382.351552,88.1929054 382.16094,88.1401216 381.921258,88.1401216 L380.933595,88.1401216 L380.933595,89.3340405 L381.892949,89.3340405 L381.892949,89.3340405 Z" id="Shape" fill="#343333" sketch:type="MSShapeGroup"></path>
        </g>
    </g>
</svg>