<?xml version="1.0" encoding="UTF-8" standalone="no"?>
<svg width="411px" height="85px" viewBox="0 0 411 85" version="1.1" xmlns="http://www.w3.org/2000/svg" xmlns:xlink="http://www.w3.org/1999/xlink" xmlns:sketch="http://www.bohemiancoding.com/sketch/ns">
    <!-- Generator: Sketch 3.3.3 (12072) - http://www.bohemiancoding.com/sketch -->
    <title>keskologo</title>
    <desc>Created with Sketch.</desc>
    <defs></defs>
    <g id="Page-1" stroke="none" stroke-width="1" fill="none" fill-rule="evenodd" sketch:type="MSPage">
        <g id="keskologo" sketch:type="MSLayerGroup" fill="#00529C">
            <path d="M22.678,37.273 L22.454,37.273 L22.454,1.684 L0,1.684 L0,82.741 L22.454,82.741 L22.454,39.63 L22.678,39.63 L49.397,82.741 L77.24,82.741 L47.04,37.385 L74.995,1.684 L48.387,1.684 L22.678,37.273 L22.678,37.273 Z" id="Shape" sketch:type="MSShapeGroup"></path>
            <path d="M147.933,82.741 L147.933,67.023 L108.64,67.023 L108.64,49.847 L144.79,49.847 L144.79,34.129 L108.64,34.129 L108.64,17.401 L147.933,17.401 L147.933,1.684 L86.186,1.684 L86.186,82.741 L147.933,82.741 L147.933,82.741 Z" id="Shape" sketch:type="MSShapeGroup"></path>
            <path d="M226.744,25.485 C228.092,5.95 210.916,0 194.188,0 C177.235,0 160.396,5.277 159.497,24.475 C159.497,33.232 163.539,40.641 171.734,44.234 C189.359,51.98 205.975,49.623 205.975,60.626 C205.975,66.015 199.351,68.709 194.187,68.709 C186.104,68.709 180.49,64.555 180.603,56.921 L158.15,56.921 C158.487,78.925 175.103,84.426 193.963,84.426 C212.711,84.426 229.552,76.343 229.552,59.279 C229.552,37.387 209.792,36.04 196.208,32.559 C190.258,30.987 183.073,29.079 183.073,23.128 C183.073,19.086 187.564,15.719 192.728,15.719 C196.545,15.719 199.464,16.617 201.373,18.301 C203.394,19.985 204.404,22.343 204.292,25.486 L226.744,25.486 L226.744,25.485 L226.744,25.485 Z" id="Shape" sketch:type="MSShapeGroup"></path>
            <path d="M265.893,37.273 L265.668,37.273 L265.668,1.684 L243.215,1.684 L243.215,82.741 L265.668,82.741 L265.668,39.63 L265.893,39.63 L292.613,82.741 L320.455,82.741 L290.254,37.385 L318.209,1.684 L291.602,1.684 L265.893,37.273 L265.893,37.273 Z" id="Shape" sketch:type="MSShapeGroup"></path>
            <path d="M386.881,42.55 C386.881,54.562 383.738,68.708 368.471,68.708 C353.201,68.708 350.059,54.562 350.059,42.55 C350.059,29.863 353.202,15.718 368.471,15.718 C383.738,15.718 386.881,29.863 386.881,42.55 L386.881,42.55 L386.881,42.55 Z M368.471,84.425 C395.301,84.425 410.457,68.932 410.457,42.212 C410.457,15.493 395.301,0 368.471,0 C341.639,0 326.483,15.493 326.483,42.212 C326.482,68.932 341.639,84.425 368.471,84.425 L368.471,84.425 L368.471,84.425 Z" id="Shape" sketch:type="MSShapeGroup"></path>
        </g>
    </g>
</svg>