<?xml version="1.0" encoding="UTF-8" standalone="no"?>
<svg width="275px" height="61px" viewBox="0 0 275 61" version="1.1" xmlns="http://www.w3.org/2000/svg" xmlns:xlink="http://www.w3.org/1999/xlink" xmlns:sketch="http://www.bohemiancoding.com/sketch/ns">
    <!-- Generator: Sketch 3.3.3 (12072) - http://www.bohemiancoding.com/sketch -->
    <title>mehilainenlogo</title>
    <desc>Created with Sketch.</desc>
    <defs></defs>
    <g id="Page-1" stroke="none" stroke-width="1" fill="none" fill-rule="evenodd" sketch:type="MSPage">
        <g id="mehilainenlogo" sketch:type="MSLayerGroup">
            <g id="Group" sketch:type="MSShapeGroup">
                <g id="logo" transform="translate(3.000000, 1.000000)" fill="#146A4B">
                    <path d="M29.676,15.512 C28.527,13.695 27.537,11.979 26.397,10.37 C25.248,8.749 24.067,7.119 22.687,5.702 C20.813,3.778 18.412,3.214 15.846,4.055 C13.258,4.903 12.039,6.97 11.588,9.525 C10.916,13.334 12.403,16.549 14.715,19.362 C17.577,22.845 20.665,26.143 23.635,29.538 C28.393,34.976 33.133,40.43 37.885,45.873 C38.457,46.528 39.058,47.157 39.752,47.913 C41.317,46.385 42.803,44.934 44.289,43.483 C44.361,43.544 44.433,43.605 44.505,43.666 C41.813,47.966 39.12,52.266 36.358,56.677 C34.198,54.109 32.174,51.662 30.106,49.253 C25.685,44.106 21.191,39.021 16.823,33.83 C13.437,29.806 9.62,26.103 7.063,21.436 C5.128,17.904 4.161,14.149 5.325,10.138 C6.872,4.808 12.075,0.951 17.65,0.721 C24.352,0.445 29.228,3.388 32.72,8.934 C33.017,9.405 33.315,9.877 33.662,10.428 C32.339,12.115 31.067,13.738 29.676,15.512 Z" id="Shape"></path>
                    <path d="M76.198,51.838 C74.115,53.427 72.07,55.072 69.918,56.561 C69.47,56.871 68.59,56.746 67.971,56.585 C64.958,55.799 62.531,53.955 60.19,52.019 C53.885,46.803 48.464,40.727 43.257,34.45 C41.091,31.839 38.985,29.18 36.855,26.54 C36.684,26.328 36.533,26.098 36.333,25.822 C37.702,24.068 39.045,22.348 40.502,20.481 C41.802,22.063 43.002,23.523 44.202,24.984 C49.499,31.436 54.854,37.848 60.992,43.522 C63.494,45.835 66.321,47.825 69.14,49.759 C71.173,51.154 73.516,51.91 76.198,51.838 L76.198,51.838 Z" id="Shape"></path>
                    <path d="M28.582,28.398 C27.926,27.737 27.371,27.178 26.758,26.56 C28.814,23.905 30.801,21.319 32.81,18.751 C35.687,15.074 38.501,11.343 41.493,7.761 C43.907,4.871 46.523,2.183 50.477,1.336 C55.273,0.309 60.387,2.389 63.152,6.629 C65.759,10.628 65.633,16.046 62.627,19.886 C60.786,22.239 58.683,24.388 56.684,26.615 C55.849,27.546 54.976,28.443 53.92,29.213 C54.666,27.688 55.459,26.183 56.146,24.632 C56.921,22.882 57.773,21.138 58.286,19.305 C59.205,16.026 59.018,12.85 56.843,9.971 C54.584,6.98 48.357,4.741 44.354,8.989 C41.514,12.002 38.955,15.286 36.347,18.51 C33.938,21.488 31.63,24.549 29.276,27.571 C29.082,27.822 28.869,28.058 28.582,28.398 L28.582,28.398 Z" id="Shape"></path>
                    <path d="M16.143,40.725 C16.713,41.412 17.191,41.988 17.764,42.678 C12.852,48.756 7.162,53.862 0.311,57.658 C6.208,52.68 11.36,47.011 16.143,40.725 L16.143,40.725 Z" id="Shape"></path>
                </g>
                <g id="text">
                    <path d="M0.24,60.72 L0.24,0.24 L274.08,0.24 L274.08,60.72 L0.24,60.72 L0.24,60.72 Z M36.662,11.428 C36.315,10.878 36.017,10.406 35.719,9.933 C32.226,4.387 27.351,1.444 20.649,1.72 C15.075,1.95 9.871,5.807 8.324,11.137 C7.16,15.148 8.127,18.904 10.062,22.435 C12.618,27.102 16.435,30.805 19.822,34.829 C24.191,40.02 28.685,45.105 33.105,50.252 C35.174,52.661 37.198,55.109 39.357,57.676 C42.119,53.265 44.811,48.965 47.504,44.665 C47.432,44.604 47.36,44.543 47.288,44.482 C45.802,45.933 44.317,47.383 42.751,48.912 C42.057,48.155 41.455,47.526 40.884,46.872 C36.132,41.429 31.392,35.975 26.634,30.537 C23.664,27.142 20.576,23.844 17.714,20.361 C15.403,17.548 13.915,14.333 14.587,10.524 C15.038,7.969 16.256,5.902 18.845,5.054 C21.41,4.214 23.811,4.777 25.686,6.701 C27.067,8.119 28.248,9.748 29.396,11.369 C30.537,12.978 31.526,14.694 32.675,16.511 C34.067,14.738 35.339,13.115 36.662,11.428 L36.662,11.428 Z M79.198,52.838 C76.516,52.91 74.173,52.154 72.14,50.759 C69.321,48.825 66.495,46.835 63.992,44.522 C57.854,38.848 52.499,32.436 47.202,25.984 C46.002,24.523 44.802,23.062 43.502,21.481 C42.045,23.347 40.703,25.067 39.333,26.822 C39.533,27.098 39.683,27.328 39.855,27.54 C41.986,30.18 44.092,32.839 46.257,35.45 C51.463,41.727 56.885,47.803 63.19,53.019 C65.531,54.956 67.958,56.799 70.971,57.585 C71.59,57.747 72.47,57.871 72.918,57.561 C75.07,56.072 77.115,54.427 79.198,52.838 L79.198,52.838 Z M31.582,29.398 C31.869,29.058 32.082,28.822 32.277,28.572 C34.632,25.55 36.939,22.489 39.348,19.511 C41.956,16.287 44.515,13.003 47.355,9.99 C51.358,5.743 57.584,7.982 59.844,10.972 C62.019,13.85 62.206,17.026 61.287,20.306 C60.774,22.138 59.922,23.882 59.147,25.633 C58.46,27.184 57.667,28.689 56.921,30.214 C57.977,29.444 58.85,28.546 59.685,27.616 C61.684,25.388 63.787,23.24 65.628,20.887 C68.633,17.047 68.76,11.629 66.153,7.63 C63.388,3.39 58.274,1.31 53.478,2.337 C49.524,3.184 46.908,5.872 44.494,8.762 C41.502,12.344 38.688,16.075 35.811,19.752 C33.802,22.32 31.815,24.906 29.759,27.561 C30.37,28.178 30.926,28.737 31.582,29.398 L31.582,29.398 Z M108.409,21.902 C108.274,21.875 108.14,21.847 108.005,21.82 C106.154,25.675 104.304,29.53 102.331,33.638 C100.323,29.53 98.433,25.665 96.544,21.8 C96.169,22.123 96.059,22.363 96.019,22.615 C95.378,26.707 94.724,30.797 94.13,34.895 C93.987,35.879 93.84,36.767 92.524,37.126 L96.549,37.126 C96.257,36.764 95.512,36.261 95.546,35.817 C95.751,33.105 96.132,30.406 96.454,27.703 C96.566,27.685 96.677,27.668 96.789,27.65 C98.368,30.828 99.947,34.005 101.692,37.518 C103.449,33.903 105.048,30.613 106.647,27.323 C106.756,27.343 106.865,27.362 106.974,27.382 C107.384,30.563 107.794,33.744 108.222,37.068 L112.471,37.068 C110.834,36.985 110.443,35.88 110.276,34.494 C110.038,32.518 109.713,30.552 109.419,28.583 C109.086,26.356 108.746,24.129 108.409,21.902 L108.409,21.902 Z M145.56,22.31 C145.927,22.655 146.775,23.072 146.832,23.577 C147.013,25.183 146.899,26.823 146.899,28.567 C144.39,28.567 142.001,28.587 139.614,28.533 C139.395,28.528 139.017,28.054 139.003,27.783 C138.951,26.748 139.022,25.708 139.038,24.67 C139.054,23.68 138.916,22.618 140.251,22.34 L134.977,22.34 C136.466,22.36 136.617,23.3 136.604,24.478 C136.564,27.996 136.568,31.515 136.58,35.034 C136.584,36.068 136.4,36.923 135.201,37.127 L140.838,37.127 C139.269,37.08 139.088,35.992 139.047,34.804 C139.014,33.846 138.973,32.887 138.978,31.929 C138.992,29.044 138.668,29.577 141.264,29.536 C143.126,29.507 144.988,29.53 146.912,29.53 C146.912,31.4 146.922,33.077 146.908,34.754 C146.9,35.788 147.039,36.924 145.575,37.118 L151.313,37.118 C150.06,37.044 149.438,36.541 149.449,35.168 C149.48,31.493 149.355,27.816 149.412,24.142 C149.422,23.495 150.015,22.858 150.292,22.309 C148.84,22.31 147.056,22.31 145.56,22.31 L145.56,22.31 Z M257.397,37.141 L261.953,37.141 C261.584,36.771 260.73,36.322 260.689,35.808 C260.44,32.697 260.377,29.571 260.251,26.45 C264.139,30.144 267.72,33.975 271.865,37.389 C272.125,33.061 272.123,28.837 272.127,24.613 C272.128,23.616 271.953,22.51 273.406,22.355 L268.92,22.355 C270.127,22.383 270.549,23.036 270.561,24.148 C270.593,27.139 270.656,30.13 270.698,33.122 C270.699,33.16 270.581,33.199 270.48,33.262 C266.804,29.479 263.122,25.689 259.273,21.727 C259.232,22.294 259.196,22.595 259.19,22.898 C259.113,26.929 259.029,30.959 258.973,34.99 C258.958,36.095 258.776,37.008 257.397,37.141 L257.397,37.141 Z M232.425,37.337 C232.461,37 232.517,36.697 232.523,36.393 C232.608,32.319 232.708,28.246 232.751,24.172 C232.762,23.179 232.941,22.446 234.086,22.333 L229.532,22.333 C231.047,22.339 231.165,23.321 231.165,24.483 C231.165,25.718 231.303,26.953 231.326,28.189 C231.356,29.84 231.334,31.492 231.334,33.498 C227.411,29.468 223.736,25.693 219.91,21.762 C219.839,22.311 219.77,22.613 219.765,22.916 C219.701,26.792 219.643,30.668 219.59,34.543 C219.574,35.718 219.682,36.953 218.038,37.141 L223.047,37.141 C221.331,36.637 221.118,36.382 221.063,34.55 C221.009,32.752 221.034,30.952 221.002,29.152 C220.986,28.258 220.923,27.365 220.877,26.396 C224.783,30.096 228.558,33.673 232.425,37.337 L232.425,37.337 Z M200.558,37.133 C198.998,36.861 198.484,35.621 197.988,34.402 C196.472,30.679 194.986,26.943 193.477,23.217 C193.282,22.735 193.015,22.281 192.657,21.567 C192.361,22.212 192.184,22.559 192.039,22.919 C190.446,26.869 188.841,30.814 187.28,34.776 C186.822,35.938 186.321,36.973 184.887,37.137 L188.98,37.137 C188.805,36.676 188.365,36.113 188.466,35.671 C188.72,34.554 189.196,33.483 189.634,32.414 C189.719,32.208 190.033,31.971 190.248,31.964 C191.525,31.922 192.803,31.933 194.081,31.955 C194.253,31.958 194.526,32.081 194.577,32.216 C195.186,33.813 195.762,35.422 196.385,37.132 C197.585,37.133 199.072,37.133 200.558,37.133 L200.558,37.133 Z M118.426,22.247 C119.82,22.353 120.055,23.203 120.043,24.364 C120.007,27.921 120.007,31.478 120.018,35.034 C120.021,36.064 119.842,36.921 118.547,37.113 C121.36,37.21 124.077,37.186 126.792,37.226 C127.518,37.237 127.82,36.934 127.878,36.283 C127.927,35.731 127.947,35.176 127.969,34.786 C127.439,35.251 126.994,35.937 126.415,36.081 C125.515,36.305 124.492,36.306 123.586,36.107 C123.147,36.01 122.644,35.285 122.543,34.771 C122.369,33.885 122.482,32.942 122.481,32.023 C122.479,29.71 122.481,29.744 124.725,29.712 C125.828,29.696 126.732,29.829 126.923,31.153 C127.016,30.21 127.109,29.267 127.183,28.521 C125.648,28.639 124.169,28.753 122.578,28.876 L122.578,23.366 C125.68,22.916 126.574,23.198 127.309,24.784 C127.359,23.915 127.409,23.047 127.455,22.247 C124.32,22.247 121.373,22.247 118.426,22.247 L118.426,22.247 Z M241.29,22.245 C242.407,22.453 242.901,23.001 242.895,24.091 C242.875,27.729 242.878,31.367 242.873,35.005 C242.872,35.996 242.681,36.868 241.464,37.13 C243.815,37.21 246.092,37.21 248.369,37.21 C250.805,37.21 250.806,37.21 250.8,34.788 C250.8,34.731 250.737,34.673 250.613,34.46 C250.335,36.033 249.274,36.297 248.019,36.252 C247.66,36.239 247.299,36.251 246.94,36.243 C245.875,36.219 245.311,35.675 245.3,34.608 C245.285,33.209 245.275,31.809 245.312,30.411 C245.319,30.152 245.492,29.755 245.695,29.668 C246.807,29.189 249.179,30.047 249.786,31.08 C249.865,30.142 249.944,29.196 250,28.531 C248.62,28.614 247.25,28.716 245.878,28.756 C245.693,28.761 245.339,28.46 245.335,28.294 C245.294,26.634 245.31,24.973 245.31,23.147 C247.057,23.641 249.132,22.266 250.1,24.996 C250.187,23.858 250.252,23.014 250.311,22.245 L241.29,22.245 L241.29,22.245 Z M171.64,37.209 C174.504,37.209 177.368,37.222 180.231,37.189 C180.523,37.186 181.007,36.953 181.066,36.735 C181.27,35.984 181.325,35.192 181.437,34.416 C181.346,34.357 181.254,34.298 181.163,34.238 C180.849,36.112 179.569,36.328 178.101,36.231 C177.863,36.215 177.622,36.237 177.383,36.225 C175.815,36.145 175.421,35.76 175.412,34.172 C175.394,30.939 175.423,27.705 175.395,24.472 C175.385,23.335 175.392,22.294 176.962,22.328 L171.453,22.328 C172.742,22.381 172.942,23.297 172.939,24.263 C172.929,27.932 172.865,31.602 172.843,35.271 C172.839,36.171 172.73,36.952 171.64,37.209 L171.64,37.209 Z M206.077,22.307 C206.382,22.806 207.039,23.389 207.053,23.987 C207.143,27.662 207.109,31.341 207.065,35.017 C207.054,35.918 207.001,36.903 205.806,37.141 L211.544,37.141 C209.513,36.584 209.51,36.584 209.509,34.585 C209.507,31.147 209.527,27.71 209.497,24.272 C209.488,23.253 209.624,22.432 210.864,22.307 C209.158,22.307 207.452,22.307 206.077,22.307 L206.077,22.307 Z M19.143,41.725 C14.359,48.011 9.208,53.679 3.31,58.658 C10.161,54.863 15.851,49.756 20.763,43.678 C20.191,42.988 19.714,42.413 19.143,41.725 L19.143,41.725 Z M158.565,22.303 C159.558,22.469 159.914,23.039 159.909,23.994 C159.89,27.548 159.928,31.103 159.88,34.656 C159.867,35.662 160.281,37.013 158.55,37.116 L163.915,37.116 C163.548,36.809 162.549,36.37 162.53,35.893 C162.378,31.944 162.367,27.987 162.425,24.034 C162.434,23.427 163.008,22.828 163.28,22.303 C161.907,22.303 160.236,22.303 158.565,22.303 L158.565,22.303 Z M190.79,18.451 C190.344,19.092 189.927,19.43 189.932,19.761 C189.937,20.049 190.419,20.329 190.691,20.613 C190.987,20.317 191.43,20.061 191.529,19.71 C191.597,19.467 191.187,19.091 190.79,18.451 L190.79,18.451 Z M195.038,21.032 C195.41,20.366 195.781,19.991 195.765,19.634 C195.753,19.377 195.141,18.89 194.946,18.955 C194.611,19.067 194.228,19.505 194.178,19.851 C194.14,20.114 194.588,20.447 195.038,21.032 L195.038,21.032 Z" id="Shape" fill="#FFFFFF"></path>
                    <path d="M108.409,21.902 C108.746,24.129 109.086,26.356 109.419,28.584 C109.713,30.553 110.038,32.519 110.276,34.495 C110.443,35.88 110.834,36.986 112.471,37.069 L108.222,37.069 C107.794,33.745 107.384,30.564 106.974,27.383 C106.865,27.363 106.756,27.344 106.647,27.324 C105.048,30.614 103.449,33.904 101.692,37.519 C99.947,34.007 98.368,30.829 96.789,27.651 C96.677,27.669 96.566,27.686 96.454,27.704 C96.132,30.407 95.751,33.106 95.546,35.818 C95.512,36.262 96.257,36.765 96.549,37.127 L92.524,37.127 C93.84,36.768 93.988,35.88 94.13,34.896 C94.723,30.797 95.378,26.708 96.019,22.616 C96.058,22.364 96.169,22.123 96.544,21.801 C98.433,25.666 100.323,29.531 102.331,33.639 C104.304,29.53 106.154,25.675 108.005,21.821 C108.14,21.847 108.275,21.875 108.409,21.902 L108.409,21.902 Z" id="Shape" fill="#000000"></path>
                    <path d="M145.56,22.31 L150.292,22.31 C150.015,22.858 149.422,23.496 149.412,24.143 C149.355,27.817 149.48,31.494 149.449,35.169 C149.437,36.542 150.06,37.046 151.313,37.119 L145.575,37.119 C147.039,36.925 146.9,35.789 146.908,34.755 C146.921,33.078 146.912,31.401 146.912,29.531 C144.988,29.531 143.126,29.508 141.264,29.537 C138.667,29.577 138.992,29.045 138.978,31.93 C138.973,32.888 139.014,33.847 139.047,34.805 C139.088,35.993 139.269,37.081 140.838,37.128 L135.201,37.128 C136.4,36.924 136.584,36.069 136.58,35.035 C136.567,31.516 136.564,27.997 136.604,24.479 C136.617,23.3 136.466,22.36 134.977,22.341 L140.251,22.341 C138.916,22.618 139.054,23.681 139.038,24.671 C139.022,25.709 138.951,26.75 139.003,27.784 C139.017,28.055 139.395,28.529 139.614,28.534 C142.001,28.588 144.39,28.568 146.899,28.568 C146.899,26.824 147.013,25.184 146.832,23.578 C146.776,23.071 145.927,22.655 145.56,22.31 L145.56,22.31 Z" id="Shape" fill="#000000"></path>
                    <path d="M257.397,37.141 C258.776,37.008 258.959,36.095 258.974,34.99 C259.03,30.959 259.114,26.928 259.191,22.898 C259.197,22.596 259.233,22.294 259.274,21.727 C263.124,25.689 266.805,29.478 270.481,33.262 C270.582,33.199 270.699,33.16 270.699,33.122 C270.657,30.131 270.595,27.14 270.562,24.148 C270.55,23.036 270.128,22.384 268.921,22.355 L273.407,22.355 C271.954,22.51 272.129,23.616 272.128,24.613 C272.124,28.837 272.126,33.061 271.866,37.389 C267.721,33.975 264.14,30.144 260.252,26.45 C260.377,29.571 260.441,32.697 260.69,35.808 C260.731,36.322 261.585,36.771 261.954,37.141 C260.624,37.141 259.01,37.141 257.397,37.141 L257.397,37.141 Z" id="Shape" fill="#000000"></path>
                    <path d="M232.425,37.337 C228.558,33.673 224.783,30.096 220.877,26.395 C220.922,27.364 220.986,28.258 221.002,29.151 C221.033,30.95 221.009,32.75 221.063,34.549 C221.118,36.382 221.332,36.636 223.047,37.14 L218.038,37.14 C219.682,36.953 219.575,35.717 219.59,34.542 C219.642,30.666 219.701,26.79 219.765,22.915 C219.77,22.612 219.839,22.31 219.91,21.761 C223.737,25.692 227.412,29.467 231.334,33.497 C231.334,31.491 231.357,29.839 231.326,28.188 C231.303,26.952 231.166,25.717 231.165,24.482 C231.165,23.32 231.047,22.338 229.532,22.332 L234.086,22.332 C232.94,22.445 232.761,23.179 232.751,24.171 C232.708,28.245 232.608,32.319 232.523,36.392 C232.517,36.697 232.462,37 232.425,37.337 L232.425,37.337 Z" id="Shape" fill="#000000"></path>
                    <path d="M200.558,37.133 L196.384,37.133 C195.761,35.423 195.185,33.813 194.576,32.217 C194.525,32.083 194.252,31.959 194.08,31.956 C192.802,31.934 191.524,31.923 190.247,31.965 C190.032,31.972 189.718,32.209 189.633,32.415 C189.195,33.483 188.719,34.554 188.465,35.672 C188.365,36.113 188.804,36.677 188.979,37.138 L184.886,37.138 C186.32,36.974 186.821,35.939 187.279,34.777 C188.84,30.815 190.445,26.87 192.038,22.92 C192.183,22.56 192.36,22.213 192.656,21.568 C193.014,22.282 193.281,22.736 193.476,23.218 C194.986,26.944 196.471,30.68 197.987,34.403 C198.485,35.621 198.999,36.862 200.558,37.133 L200.558,37.133 Z M194.184,31.059 C193.524,29.267 192.928,27.647 192.332,26.027 C192.22,26.047 192.108,26.068 191.995,26.088 C191.4,27.701 190.805,29.314 190.162,31.059 L194.184,31.059 L194.184,31.059 Z" id="Shape" fill="#000000"></path>
                    <path d="M118.426,22.247 L127.455,22.247 C127.409,23.046 127.359,23.915 127.309,24.784 C126.573,23.198 125.68,22.916 122.578,23.366 L122.578,28.876 C124.169,28.753 125.648,28.639 127.183,28.521 C127.109,29.267 127.016,30.21 126.923,31.153 C126.732,29.828 125.828,29.696 124.725,29.712 C122.481,29.744 122.479,29.71 122.481,32.023 C122.482,32.942 122.368,33.885 122.543,34.771 C122.644,35.285 123.147,36.01 123.586,36.107 C124.492,36.306 125.516,36.304 126.415,36.081 C126.994,35.937 127.439,35.251 127.969,34.786 C127.946,35.176 127.927,35.731 127.878,36.283 C127.82,36.934 127.518,37.237 126.792,37.226 C124.077,37.186 121.36,37.21 118.547,37.113 C119.841,36.921 120.021,36.063 120.018,35.034 C120.007,31.477 120.006,27.92 120.043,24.364 C120.055,23.203 119.82,22.354 118.426,22.247 L118.426,22.247 Z" id="Shape" fill="#000000"></path>
                    <path d="M241.29,22.245 L250.308,22.245 C250.249,23.014 250.184,23.858 250.097,24.996 C249.129,22.266 247.054,23.641 245.307,23.147 C245.307,24.973 245.291,26.634 245.332,28.294 C245.336,28.46 245.69,28.761 245.875,28.756 C247.247,28.716 248.618,28.614 249.997,28.531 C249.941,29.196 249.861,30.142 249.783,31.08 C249.176,30.047 246.804,29.189 245.692,29.668 C245.49,29.755 245.316,30.152 245.309,30.411 C245.273,31.809 245.283,33.209 245.297,34.608 C245.308,35.675 245.872,36.219 246.937,36.243 C247.297,36.251 247.657,36.24 248.016,36.252 C249.27,36.297 250.332,36.033 250.61,34.46 C250.734,34.673 250.797,34.73 250.797,34.788 C250.803,37.21 250.802,37.21 248.366,37.21 C246.089,37.21 243.812,37.21 241.461,37.13 C242.678,36.867 242.869,35.996 242.87,35.005 C242.875,31.367 242.872,27.729 242.892,24.091 C242.901,23.001 242.407,22.453 241.29,22.245 L241.29,22.245 Z" id="Shape" fill="#000000"></path>
                    <path d="M171.64,37.209 C172.73,36.952 172.838,36.171 172.844,35.271 C172.866,31.601 172.93,27.932 172.94,24.263 C172.943,23.297 172.743,22.382 171.454,22.328 L176.963,22.328 C175.393,22.295 175.386,23.336 175.396,24.472 C175.424,27.705 175.395,30.939 175.413,34.172 C175.422,35.759 175.816,36.145 177.384,36.225 C177.623,36.237 177.864,36.215 178.102,36.231 C179.57,36.329 180.851,36.112 181.164,34.238 C181.255,34.297 181.347,34.356 181.438,34.416 C181.326,35.192 181.271,35.984 181.067,36.735 C181.008,36.953 180.524,37.185 180.232,37.189 C177.368,37.222 174.504,37.209 171.64,37.209 L171.64,37.209 Z" id="Shape" fill="#000000"></path>
                    <path d="M206.077,22.307 L210.864,22.307 C209.624,22.433 209.488,23.254 209.497,24.272 C209.527,27.709 209.507,31.147 209.509,34.585 C209.51,36.584 209.513,36.584 211.544,37.141 L205.806,37.141 C207.001,36.903 207.054,35.918 207.065,35.017 C207.108,31.34 207.142,27.662 207.053,23.987 C207.039,23.388 206.382,22.806 206.077,22.307 L206.077,22.307 Z" id="Shape" fill="#000000"></path>
                    <path d="M158.565,22.303 L163.281,22.303 C163.009,22.828 162.434,23.427 162.426,24.034 C162.369,27.987 162.379,31.944 162.531,35.893 C162.549,36.369 163.549,36.808 163.916,37.116 L158.551,37.116 C160.281,37.014 159.867,35.662 159.881,34.656 C159.928,31.103 159.891,27.548 159.91,23.994 C159.915,23.039 159.558,22.469 158.565,22.303 L158.565,22.303 Z" id="Shape" fill="#000000"></path>
                    <path d="M190.79,18.451 C191.187,19.091 191.597,19.467 191.529,19.709 C191.431,20.061 190.987,20.316 190.691,20.612 C190.42,20.328 189.937,20.048 189.932,19.76 C189.927,19.43 190.344,19.092 190.79,18.451 L190.79,18.451 Z" id="Shape" fill="#000000"></path>
                    <path d="M195.038,21.032 C194.588,20.447 194.14,20.114 194.177,19.851 C194.227,19.505 194.61,19.067 194.945,18.955 C195.14,18.89 195.752,19.377 195.764,19.634 C195.781,19.991 195.41,20.366 195.038,21.032 L195.038,21.032 Z" id="Shape" fill="#000000"></path>
                    <path d="M194.184,31.059 L190.162,31.059 C190.805,29.314 191.4,27.701 191.995,26.088 C192.107,26.068 192.219,26.047 192.332,26.027 C192.929,27.647 193.525,29.267 194.184,31.059 L194.184,31.059 Z" id="Shape" fill="#FFFFFF"></path>
                </g>
            </g>
        </g>
    </g>
</svg>