<?xml version="1.0" encoding="UTF-8" standalone="no"?>
<svg width="448px" height="98px" viewBox="0 0 448 98" version="1.1" xmlns="http://www.w3.org/2000/svg" xmlns:xlink="http://www.w3.org/1999/xlink" xmlns:sketch="http://www.bohemiancoding.com/sketch/ns">
    <!-- Generator: Sketch 3.3.3 (12072) - http://www.bohemiancoding.com/sketch -->
    <title>myfitnesspallogo</title>
    <desc>Created with Sketch.</desc>
    <defs></defs>
    <g id="Page-1" stroke="none" stroke-width="1" fill="none" fill-rule="evenodd" sketch:type="MSPage">
        <g id="myfitnesspallogo" sketch:type="MSLayerGroup">
            <g id="Group" sketch:type="MSShapeGroup">
                <path d="M352.927406,1.32286957 C353.110891,0.610826087 353.943287,-0.00269565217 354.668277,0.337652174 C355.679683,0.704869565 356.70899,1.16165217 357.487683,1.91847826 C358.203723,3.25747826 358.324554,4.88308696 359.259881,6.11908696 C361.287168,8.55078261 363.189149,11.0854783 365.247762,13.4903043 C366.778297,15.4831304 368.465465,17.3416087 369.982574,19.3433913 C372.748277,22.496087 375.285743,25.8413478 378.078297,28.9761304 C378.76301,29.827 379.47905,30.7136957 380.481505,31.2107826 C381.009584,31.4212609 381.645069,31.3137826 382.110495,30.9868696 C383.059248,30.3330435 383.703683,29.2358696 383.811089,28.093913 C383.256158,26.6922174 382.298455,25.4383043 381.976238,23.9425652 C382.061267,23.6156522 382.217901,23.2797826 382.513267,23.0916957 C383.632079,22.3483043 385.019406,22.1646957 386.151644,21.4436957 C387.516594,20.6689565 388.805465,19.4866957 390.470257,19.527 C392.215604,19.3433913 393.875921,20.2032174 395.155842,21.3138261 C396.449188,22.4916087 396.243327,24.4306957 396.001663,25.9936087 C395.921109,27.3639565 394.793347,28.2864783 393.907248,29.191087 C392.967446,30.1763043 391.696475,30.6913043 390.546337,31.372 C389.691564,31.7974348 389.543881,32.8453478 389.297743,33.6693478 C391.011762,32.9617826 392.399089,31.6048696 394.21604,31.1033043 C395.334851,30.771913 396.39101,30.1091304 397.599327,30.1315217 C400.235248,30.1136087 402.90697,30.3016957 405.502614,29.7329565 C408.653188,28.6536957 411.624752,27.1400435 414.672396,25.7965652 C416.176079,25.1427391 417.836396,25.0263043 419.398257,24.5471304 C421.770139,24.0007826 424.168871,23.4186087 426.616832,23.4454783 C427.440277,23.4006957 428.304,23.8977826 428.617267,24.677 C428.541188,25.6666957 427.959406,26.531 427.480554,27.3818696 C426.205109,27.5878696 425.032594,27.1086957 423.864554,26.737 C421.635881,27.5923478 419.675723,29.1194348 417.303842,29.6075652 C416.153703,29.9031304 414.940911,30.0016522 413.857901,30.530087 C412.506376,31.183913 411.208554,31.9362609 409.803327,32.4557391 C408.125109,33.0782174 406.455842,33.7051739 404.795525,34.3500435 C402.18198,35.1874783 399.519208,35.8368261 396.874337,36.5667826 C395.737624,36.831 395.12899,37.9013043 394.475604,38.7611304 C393.419446,40.2165652 392.22903,41.6809565 391.830733,43.4812174 C391.41901,45.4919565 390.483683,47.337 389.754218,49.2447391 C389.557307,49.8672174 388.912871,50.4762609 389.25299,51.1524783 C389.807921,52.401913 390.183842,53.7812174 391.15497,54.7843478 C392.206653,55.9263043 393.097228,57.2205217 393.759564,58.6222174 C394.171287,59.5223478 394.21604,60.5433913 394.618812,61.4435217 C395.070812,62.083913 395.889782,62.289913 396.614772,62.4466522 C397.478495,62.6257826 398.279564,63.0198696 399.026931,63.4766522 C400.557465,64.3767826 402.132752,65.2276522 403.479802,66.392 C406.14705,68.5953043 408.935129,70.6463478 411.817188,72.554087 C412.846495,73.1273043 414.014535,73.3915217 415.079644,73.9020435 C417.09798,74.820087 419.313228,75.129087 421.403168,75.8545652 C423.443881,76.3785217 425.247406,77.4846522 427.113584,78.4295652 C428.894733,79.5133043 430.83699,80.314913 432.577861,81.4792609 C434.175525,82.4196957 435.580752,83.7855652 437.446931,84.2020435 C438.96404,84.5244783 440.418495,85.2141304 441.998257,85.1827826 C443.264752,85.1872609 444.535723,85.120087 445.806693,85.2186087 C446.509307,86.1321739 447.104515,87.1173913 447.762376,88.0667826 L447.762376,88.348913 C447.498337,88.7116522 447.332752,89.2221739 446.876277,89.3744348 C446.19604,89.687913 445.453149,89.4236957 444.750535,89.3565217 C443.448238,89.155 442.132515,89.069913 440.821267,88.9176522 C439.51897,88.8101739 438.15402,88.9266087 436.918851,88.434 C435.039248,87.3099565 433.334178,85.8186957 431.20396,85.1872609 C428.67097,84.5826957 426.200634,83.7452609 423.694495,83.0197826 C419.425109,81.7927391 415.245228,80.2746087 411.029545,78.8953043 C406.424515,77.5742174 402.146178,75.3440435 397.572475,73.9244348 C395.039485,72.8765217 392.269307,72.5406522 389.552832,72.5182609 C387.382337,72.657087 385.180515,71.9092174 383.041347,72.451087 C380.861901,73.4766087 378.834614,74.8156087 376.789426,76.0874348 C375.214139,77.224913 373.356911,77.8518696 371.678693,78.8012609 C369.714059,79.7416957 367.704673,80.5791304 365.659485,81.309087 C363.327881,82.4913478 361.264792,84.125913 359.05402,85.5141739 C357.456356,86.5038696 355.89002,87.6368696 354.041743,88.107087 C351.19101,89.0206522 348.246297,89.567 345.404515,90.4895217 C344.017188,90.8746522 342.571683,90.8477826 341.170931,91.112 C339.394257,91.4702609 337.568356,91.5195217 335.773782,91.6941739 C334.92796,92.0076522 334.20297,92.5853478 333.401901,92.9928696 C331.280634,93.910913 331.088198,96.983 328.747644,97.5875652 C327.655683,97.6413043 326.51897,97.2830435 325.641822,96.6292174 C324.791525,95.8589565 323.578733,96.3515652 322.571802,96.4187391 C321.35901,96.4993478 320.19097,97.0725652 318.964752,96.8844783 C318.163683,96.6963913 317.353663,96.3918696 316.75398,95.8141739 C316.530218,95.6216087 316.494416,95.2006522 316.776356,95.043913 C317.904119,94.1572174 319.345149,93.8482174 320.669822,93.3735217 C323.090931,92.5808696 325.095842,90.906 327.503525,90.082 C329.517386,89.2669565 331.714733,89.0609565 333.737545,88.2683043 C338.056158,86.494913 342.522455,85.0797826 346.760515,83.1183043 C347.986733,82.5406087 349.374059,82.1868261 350.37204,81.206087 C352.524634,79.1550435 354.896515,77.3055217 357.563762,75.9620435 C361.627287,73.6423043 365.56998,71.112087 369.485822,68.5505217 C370.546455,67.8116087 371.844277,67.5742609 372.98099,66.992087 C373.374812,66.8263913 373.558297,66.4143913 373.612,66.0158261 C373.835762,63.7766957 374.041624,61.5286087 374.502574,59.3253043 C374.860594,57.3235217 374.699485,55.268 375.15596,53.2751739 C375.572158,51.5376087 374.78004,49.8582609 374.520475,48.161 C374.108752,46.7458696 374.162455,45.2546087 373.795485,43.8305217 C373.638851,43.1229565 373.383762,42.4198696 373.441941,41.6854348 C373.585149,40.6106522 374.404119,39.8090435 374.735287,38.8014348 C375.057505,37.3818261 374.551802,35.9487826 374.592079,34.5246957 C374.560752,33.8753478 374.677109,33.1946522 374.484673,32.5632174 C373.938693,31.5332174 373.186851,30.6286087 372.52899,29.6702609 C371.141663,27.475913 369.53505,25.4338261 368.147723,23.2305217 C364.527248,18.0894783 360.987327,12.8991739 357.411604,7.73126087 C356.189861,5.85934783 353.943287,5.03982609 352.560436,3.32465217 C352.430653,2.6573913 352.739446,1.97221739 352.927406,1.32286957 L352.927406,1.32286957 L352.927406,1.32286957 Z" id="Shape" fill="#FF9C38"></path>
                <path d="M92.1547327,23.8082174 C93.5510099,23.3872609 95.0144158,23.3021739 96.4420198,23.0558696 C98.6304158,22.8453913 100.823287,23.3111304 102.962455,23.6962609 C102.841624,24.5292174 102.890851,25.3711304 102.805822,26.2085652 C102.483604,27.9461304 102.693941,29.7150435 102.617861,31.4705217 C101.552752,31.2286957 100.527921,30.7226522 99.4091089,30.8122174 C97.892,30.7674348 95.9989703,31.2958696 95.5066931,32.9214783 C94.8085545,35.3845217 95.0860198,37.9729565 95.0412673,40.4986957 C97.3415446,40.5255652 99.6328713,40.4852609 101.933149,40.5121304 C101.942099,42.9662174 101.946574,45.4158261 101.933149,47.869913 C99.6328713,47.8923043 97.3415446,47.8564783 95.0412673,47.8833478 C95.0188911,55.4023478 95.0502178,62.9168696 95.0278416,70.4313913 C91.9667723,70.4448261 88.9012277,70.4448261 85.8356832,70.4313913 C85.8177822,62.9168696 85.8446337,55.3978696 85.8222574,47.8833478 C84.3722772,47.8475217 82.9178218,47.9191739 81.4633663,47.8430435 C81.4544158,47.731087 81.4409901,47.4982174 81.4320396,47.3862609 C81.3738614,45.0620435 81.2440792,42.7288696 81.5349703,40.4136087 C81.6289505,40.436 81.8213861,40.4807826 81.9198416,40.4986957 C83.2221386,40.5255652 84.5199604,40.5121304 85.8222574,40.5031739 C85.9117624,37.8968261 85.6432475,35.268087 86.0370693,32.6796522 C86.0549703,30.4181304 86.7173069,28.0625652 88.2299406,26.3339565 C89.2100198,25.071087 90.7092277,24.3814348 92.1547327,23.8082174 L92.1547327,23.8082174 L92.1547327,23.8082174 Z" id="Shape" fill="#029AFF"></path>
                <path d="M341.005347,23.9336087 C344.14697,23.9246522 347.284119,23.9246522 350.430218,23.9336087 C350.443644,39.4328696 350.439168,54.9321304 350.430218,70.4358696 C347.288594,70.4448261 344.151446,70.4448261 341.005347,70.4358696 C341.000871,54.9321304 341.000871,39.4328696 341.005347,23.9336087 L341.005347,23.9336087 L341.005347,23.9336087 Z" id="Shape" fill="#0268CC"></path>
                <path d="M108.708673,25.8771739 C110.18998,25.604 111.836871,25.6846087 113.121267,26.5578696 C114.190851,27.3773913 115.117228,28.4969565 115.34099,29.8628261 C116.204713,32.8946087 113.671723,36.4548261 110.458495,36.3742174 C108.574416,36.607087 106.721663,35.5278261 105.674455,34.0052174 C105.173228,33.3872174 105.088198,32.5721739 104.85101,31.8422174 C104.470614,30.8346087 105.03897,29.8314783 105.267208,28.8596957 C105.902693,27.4221739 107.267644,26.4145652 108.708673,25.8771739 L108.708673,25.8771739 L108.708673,25.8771739 Z" id="Shape" fill="#029AFF"></path>
                <path d="M123.808158,32.0213478 C123.776832,31.6586087 124.184079,31.475 124.492871,31.5287391 C127.325703,31.5332174 130.158535,31.5153043 132.991366,31.5376957 C133.018218,34.5246957 132.973465,37.5161739 133.009267,40.4986957 C135.761545,40.5300435 138.522772,40.4897391 141.279525,40.5166087 C141.29295,42.9662174 141.29295,45.4203043 141.279525,47.8743913 C138.527248,47.8967826 135.770495,47.8609565 133.009267,47.8878261 C132.977941,51.4973043 133.009267,55.1023043 132.995842,58.7117826 C133.031644,60.3060435 133.488119,62.0973478 134.933624,62.9974783 C136.061386,63.525913 137.336832,63.2393043 138.536198,63.3154348 C139.516277,63.4139565 140.397901,62.9347826 141.27505,62.581 C141.306376,65.1156957 141.279525,67.6593478 141.288475,70.1940435 C138.66598,71.2598696 135.788396,71.1837391 133.004792,71.112087 C130.283842,70.838913 127.289901,70.0641739 125.566931,67.7578696 C124.452594,66.4591739 124.072198,64.7171304 123.803683,63.0736087 C123.781307,58.0086957 123.812634,52.9437826 123.790257,47.8833478 C121.874851,47.8564783 119.968396,47.8967826 118.05299,47.869913 C118.039564,45.4158261 118.039564,42.9662174 118.05299,40.5121304 C119.968396,40.4852609 121.874851,40.5255652 123.790257,40.4986957 C123.821584,37.6684348 123.767881,34.8471304 123.808158,32.0213478 L123.808158,32.0213478 L123.808158,32.0213478 Z" id="Shape" fill="#029AFF"></path>
                <path d="M11.8195644,41.0405652 C13.6723168,39.5851304 16.0844752,38.9447391 18.4205545,39.1238696 C20.3896634,38.994 22.4169505,39.303 24.1399208,40.3016522 C25.5943762,41.0987826 26.6952871,42.393 27.6664158,43.714087 C28.7404752,42.4377826 29.7697822,41.036087 31.3003168,40.2747826 C32.5981386,39.6657391 33.9720396,39.0477391 35.4399208,39.1238696 C36.818297,39.1641739 38.192198,39.0701304 39.566099,39.1641739 C41.1816634,39.4283913 42.837505,39.9433913 44.032396,41.1256522 C46.1491881,42.8184348 47.3440792,45.4426957 47.6573465,48.0983043 C47.7871287,49.3253478 48.0914455,50.5434348 48.100396,51.783913 C48.0780198,57.7668696 48.0959208,63.7543043 48.0914455,69.7417391 C48.172,70.1582174 47.8229307,70.5254348 47.4022574,70.4358696 C44.3411881,70.4403478 41.2801188,70.4582609 38.2190495,70.426913 C38.1787723,64.5917391 38.2235248,58.7655217 38.2011485,52.9348261 C38.0489901,51.577913 37.8878812,50.1314348 37.1091881,48.9715652 C36.1425347,47.6997391 34.3882376,47.7445217 32.9561584,47.9236522 C32.1103366,48.2236957 31.2197624,48.5774783 30.561901,49.208913 C29.8950891,50.341913 29.1656238,51.5689565 29.2148515,52.9303478 C29.2551287,58.461 29.2148515,63.9961304 29.2372277,69.5223043 C29.2551287,69.876087 29.2193267,70.4358696 28.7404752,70.4224348 C25.9121188,70.4761739 23.0748119,70.409 20.2464554,70.4493043 C19.8660594,70.409 19.3648317,70.5478261 19.1455446,70.1403043 C19.1052673,69.8626522 19.0918416,69.5805217 19.0918416,69.2983913 C19.1231683,63.5348696 19.0784158,57.7758261 19.1186931,52.0123043 C19.1679208,50.7225652 18.5458614,49.5044783 17.7626931,48.5282174 C16.9258218,47.8430435 15.7533069,47.8296087 14.724,47.8609565 C13.0681584,47.8564783 11.5868515,49.0521739 10.9155644,50.5031304 C10.5306931,51.972 10.2442772,53.4856522 10.1189703,55.0082609 C10.1100198,60.1448261 10.1234455,65.2858696 10.1189703,70.426913 C7.05790099,70.4582609 3.99683168,70.4403478 0.940237624,70.4358696 C0.515089109,70.5209565 0.17049505,70.1582174 0.251049505,69.7417391 C0.26,59.7731304 0.237623762,49.8045217 0.264475248,39.8403913 C3.09730693,39.818 5.93461386,39.8538261 8.7629703,39.8224783 C9.12994059,39.8672609 9.64906931,39.715 9.86388119,40.1180435 C9.96681188,41.0226522 9.87730693,41.9362174 9.91310891,42.8497826 C10.5933465,42.2989565 11.1572277,41.6182609 11.8195644,41.0405652 L11.8195644,41.0405652 L11.8195644,41.0405652 Z" id="Shape" fill="#68C9FD"></path>
                <path d="M47.8274059,39.8448696 C51.4165545,39.8314348 55.005703,39.8135217 58.5993267,39.8493478 C60.465505,45.191913 62.6673267,50.409087 64.6632871,55.7023913 C65.0929109,56.7189565 65.3972277,57.7892609 65.9745347,58.7386522 C68.149505,52.4646087 70.1499406,46.1278696 72.3204356,39.8493478 C75.5202376,39.818 78.7200396,39.8314348 81.9198416,39.835913 C81.9243168,40.0016087 81.9243168,40.3285217 81.9243168,40.4986957 C81.8303366,40.4807826 81.637901,40.436 81.5394455,40.4136087 C81.0471683,40.1628261 80.4967129,40.1001304 79.9507327,40.1135652 C79.9194059,42.513913 79.9328317,44.9142609 79.9417822,47.3101304 C80.4385347,47.3325217 80.9397624,47.354913 81.4365149,47.3862609 C81.4454653,47.4982174 81.4588911,47.731087 81.4678416,47.8430435 C80.7965545,47.8609565 80.1252673,47.8833478 79.4584554,47.9102174 C77.7533861,52.0884348 76.2273267,56.3293478 74.5222574,60.5075652 C73.555604,62.7959565 72.8216634,65.1783913 71.8102574,67.4488696 C70.2394455,71.3404783 68.8789703,75.3216522 67.1470495,79.1416087 C66.3817822,80.8612609 65.1018614,82.2987826 63.6160792,83.4317826 C62.653901,84.1483043 61.4634851,84.434913 60.3267723,84.7394348 C56.4288317,85.5813478 52.3474059,85.155913 48.5658218,83.9826087 C48.8432871,82.4152174 48.9641188,80.829913 49.3355644,79.2804348 C49.599604,78.0981739 49.510099,76.8532174 49.944198,75.7112609 C51.3136238,76.0516087 52.6293465,76.6875217 54.0748515,76.6651304 C55.7217426,76.7502174 57.681901,76.5307826 58.7291089,75.0843043 C59.5883564,73.7094783 60.1790891,72.1913478 60.7787723,70.6911304 C60.9935842,70.2836087 60.6982178,69.8626522 60.5818614,69.4775217 C56.7376238,60.7180435 52.9739406,51.9227391 49.1341782,43.1632609 C48.695604,42.0616087 48.0198416,41.036087 47.8274059,39.8448696 L47.8274059,39.8448696 L47.8274059,39.8448696 Z" id="Shape" fill="#68C9FD"></path>
                <path d="M155.488436,42.7467826 C157.059248,41.1973043 159.131287,40.1314783 161.324158,39.8448696 C163.825822,39.7284348 166.457267,39.732913 168.744119,40.8883043 C171.004119,41.9720435 172.588356,44.1708696 173.192515,46.5756957 C173.689267,48.0266522 173.805624,49.5671739 173.957782,51.0853043 C173.944356,57.534 173.962257,63.9826957 173.944356,70.4313913 C171.111525,70.4493043 168.283168,70.4358696 165.450337,70.4403478 C165.029663,70.529913 164.662693,70.1626957 164.756673,69.7417391 C164.761149,64.3678261 164.743248,58.9983913 164.770099,53.6244783 C164.676119,51.8824348 164.336,49.9523043 162.966574,48.7431739 C160.921386,47.3146087 157.869267,47.5833043 156.101545,49.3432609 C155.233347,50.5076087 154.57996,51.9137826 154.629188,53.396087 C154.660515,54.323087 154.405426,55.2276957 154.40095,56.1502174 C154.40095,60.915087 154.414376,65.671 154.396475,70.4313913 C151.339881,70.4403478 148.287762,70.4537826 145.231168,70.426913 C145.226693,60.4538261 145.235644,50.4896957 145.231168,40.521087 C148.211683,40.4897391 151.187723,40.5031739 154.168238,40.5121304 C154.20404,41.8421739 154.12796,43.1811739 154.20404,44.5112174 C154.687366,43.9603913 154.942455,43.2483478 155.488436,42.7467826 L155.488436,42.7467826 L155.488436,42.7467826 Z" id="Shape" fill="#029AFF"></path>
                <path d="M209.616554,58.2281304 C209.522574,55.8994348 209.911921,53.5080435 209.26301,51.233087 C208.833386,48.8551304 207.929386,46.530913 206.448079,44.6052609 C204.814614,42.787087 202.832079,41.1614783 200.451248,40.4673478 C198.231525,39.6433478 195.837267,39.7956087 193.514614,39.8314348 C191.187485,40.0911739 188.918535,40.8211304 186.837545,41.8824783 C185.03402,42.9169565 183.436356,44.2962609 182.107208,45.895 C180.473743,48.1251739 179.354931,50.7942174 179.175921,53.5707391 C178.8,55.3217391 179.149069,57.0906522 179.34598,58.8371739 C179.721901,60.6911739 180.433465,62.4869565 181.480673,64.0677826 C182.156436,65.3306522 183.252871,66.271087 184.264277,67.2652609 C189.970218,72.0077391 198.826733,72.5137826 204.975723,68.3131739 C206.197465,67.4443913 207.490812,66.5308261 208.242653,65.1963043 C206.049782,63.7005652 203.950891,62.0704783 201.802772,60.5120435 C200.845069,61.7928261 199.632277,62.9258261 198.164396,63.5886087 C195.443446,64.6454783 192.033307,64.2021304 190.023921,61.963 C189.191525,60.8971739 188.390455,59.6566957 188.408356,58.255 C195.474772,58.2102174 202.545663,58.255 209.616554,58.2281304 L209.616554,58.2281304 Z M188.269624,52.0212609 C188.457584,51.1927826 188.547089,50.3150435 188.994614,49.5716522 C189.737505,48.3356522 190.833941,47.2608696 192.225743,46.8175217 C193.026812,46.5846522 193.836832,46.3965652 194.664752,46.289087 C196.168436,46.5040435 197.810851,46.8578261 198.86701,48.0445652 C199.806812,49.1327826 200.554178,50.53 200.428871,52.0078261 C196.374297,52.0346957 192.324198,52.0078261 188.269624,52.0212609 L188.269624,52.0212609 Z" id="Shape" fill="#029AFF"></path>
                <path d="M215.886376,43.5528696 C218.477545,40.9106957 222.299406,39.6612609 225.955683,39.8135217 C229.965505,39.629913 234.257267,40.727087 237.206455,43.5618261 C236.101069,45.0978696 234.597386,46.2622174 233.286139,47.6101739 C232.717782,48.161 232.216554,48.7834783 231.563168,49.2357826 C230.538337,47.9505217 229.034653,47.113087 227.405663,46.8712609 C226.16602,46.5219565 224.81897,46.8309565 223.73596,47.4847826 C222.925941,47.9773913 222.83196,49.0387391 223.015446,49.8761739 C223.234733,50.4046087 223.762812,50.7001739 224.219287,51.0046957 C226.79703,52.0078261 229.594059,52.2183043 232.198653,53.1408261 C234.615287,53.8394348 236.861861,55.4874348 237.837465,57.8653913 C238.634059,60.2702174 238.571406,62.9571739 237.613703,65.3037826 C236.29798,67.731 233.917149,69.482 231.281228,70.2343478 C228.452871,71.1523913 225.44998,71.2240435 222.509743,71.1031304 C219.345743,70.7627826 216.119089,69.8716087 213.599525,67.8384783 C213.353386,67.610087 212.990891,67.3951304 213.05802,67.01 C214.678059,64.9365652 216.562139,63.078087 218.244832,61.053913 C218.737109,60.83 218.965347,61.448 219.274139,61.7032609 C219.963327,62.3257391 220.639089,62.9974783 221.498337,63.3915652 C222.585822,63.9603043 223.838891,64.0185217 225.038257,64.1752609 C226.157069,64.0140435 227.365386,64.0633043 228.34099,63.3915652 C229.164436,63.0601739 229.441901,61.9271739 228.96305,61.2151304 C228.645307,60.709087 228.193307,60.2478261 227.647327,60.0015217 C224.850297,58.890913 221.780277,58.7386522 218.983248,57.6146087 C217.801782,57.0951304 216.669545,56.4457826 215.68499,55.6217826 C214.96895,54.753 214.311089,53.7901739 214.011248,52.693 C213.586099,51.5107391 213.809861,50.2433913 213.751683,49.0253043 C213.639802,46.9966522 214.610931,45.0665217 215.886376,43.5528696 L215.886376,43.5528696 L215.886376,43.5528696 Z" id="Shape" fill="#029AFF"></path>
                <path d="M245.118693,42.4064348 C246.993822,40.8793478 249.423881,40.2703043 251.75101,39.8493478 C253.339723,39.7866522 254.941861,39.7866522 256.530574,39.8538261 C259.654297,40.315087 262.970455,41.277913 265.14095,43.7185652 C263.301624,45.6128696 261.439921,47.4847826 259.461861,49.2313043 C258.352,48.0221739 256.91097,47.0414348 255.246178,46.8667826 C253.997584,46.530913 252.66396,46.839913 251.576475,47.4982174 C250.784356,47.9773913 250.632198,49.0387391 250.85596,49.8672174 C251.827089,51.3450435 253.711168,51.6047826 255.313307,51.9048261 C257.537505,52.384 259.797505,52.8542174 261.856119,53.8663043 C263.852079,54.8783913 265.494495,56.6741739 266.04495,58.873 C266.30004,59.714913 266.210535,60.6016087 266.232911,61.4614348 C266.340317,63.6154783 265.521347,65.791913 264.093743,67.3906522 C261.578653,69.9343043 257.944752,70.7986087 254.498812,71.1210435 C251.764436,71.1926957 248.962931,71.1882174 246.33596,70.3149565 C244.219168,69.7506957 242.250059,68.6714348 240.73295,67.0726957 C241.53402,66.3203478 242.129228,65.3888696 242.925822,64.6275652 C244.174416,63.4856087 245.082891,62.0212174 246.403089,60.950913 C247.790416,62.684 249.862455,64.023 252.126931,64.0856957 C253.048832,64.2961739 253.975208,63.9916522 254.897109,63.9423913 C255.716079,63.7766957 256.651406,63.3646957 256.960198,62.5317391 C257.179485,61.7614783 256.960198,60.8210435 256.244158,60.3911304 C254.301901,59.2088696 251.979248,59.1013913 249.831129,58.5147391 C247.23996,57.9012174 244.487683,56.9294348 242.845267,54.6903043 C242.35299,53.8394348 241.874139,52.9437826 241.645901,51.9809565 C241.525069,50.6240435 241.53402,49.2581739 241.61905,47.8967826 C242.093426,45.7337826 243.288317,43.6827391 245.118693,42.4064348 L245.118693,42.4064348 L245.118693,42.4064348 Z" id="Shape" fill="#029AFF"></path>
                <path d="M303.735485,54.0902174 C303.775762,52.178 303.180554,50.3329565 302.612198,48.5326957 C302.18705,47.2295217 301.305426,46.1592174 300.638614,44.9769565 C298.584475,42.3437391 295.487604,40.6912609 292.247525,40.0195217 C290.81097,39.6657391 289.316238,39.8538261 287.857307,39.8269565 C284.688832,40.1941739 281.67699,41.9093478 279.815287,44.5067391 C279.770535,43.1766957 279.819762,41.8466522 279.797386,40.5166087 C276.96903,40.5076522 274.136198,40.4986957 271.316792,40.521087 C271.307842,55.1694783 271.307842,69.8268261 271.316792,84.4752174 C274.373386,84.4976087 277.42998,84.4841739 280.49105,84.4796957 C280.504475,78.7027391 280.482099,72.9302609 280.5,67.1533043 C281.578535,68.0937391 282.451208,69.2983913 283.789307,69.9029565 C286.747446,71.2598696 290.153109,71.4345217 293.326059,70.838913 C294.319564,70.4806522 295.362297,70.1985217 296.275248,69.6566522 C297.501465,68.8371304 298.817188,68.0892609 299.74804,66.9159565 C301.75295,64.4484348 303.117901,61.448 303.569901,58.2997826 C303.869743,56.9115217 303.672832,55.491913 303.735485,54.0902174 L303.735485,54.0902174 Z M294.23901,57.9549565 C293.822812,59.4641304 292.954614,60.9240435 291.585188,61.7480435 C288.586772,63.799087 284.111525,63.5214348 281.596436,60.8076087 C279.448317,58.1072174 279.224554,54.0678261 280.947525,51.1032174 C281.914178,49.4641739 283.610297,48.4565652 285.400396,47.9594783 C287.320277,47.6728696 289.334139,47.8967826 291.070535,48.8013913 C292.444436,49.5447826 293.491644,50.8166087 294.042099,52.2720435 C294.632832,54.0946957 294.717861,56.092 294.23901,57.9549565 L294.23901,57.9549565 Z" id="Shape" fill="#0268CC"></path>
                <path d="M335.930416,53.6289565 C335.55002,51.4793913 335.590297,49.2313043 334.829505,47.1533913 C334.211921,45.1829565 333.115485,43.2617826 331.379089,42.0750435 C329.562139,40.7315652 327.306614,40.1583478 325.104792,39.8448696 C323.730891,39.7687391 322.35699,39.8448696 320.987564,39.8135217 C319.040832,39.7239565 317.170178,40.3419565 315.31295,40.8166522 C313.021624,41.6764783 310.846653,42.8721739 309.002851,44.4933043 C309.504079,45.0441304 310.036634,45.568087 310.578139,46.0875652 C311.746178,47.1578696 312.538297,48.6222609 313.876396,49.5044783 C314.605861,49.4059565 314.954931,48.573 315.527762,48.1699565 C317.711683,46.4682174 320.701149,45.465087 323.43105,46.3473043 C325.641822,46.9384348 327.337941,49.0208261 327.458772,51.3092174 C325.673149,51.4122174 323.869624,51.1524783 322.110851,51.5152174 C319.891129,51.7928696 317.608752,51.7615217 315.465109,52.4735652 C313.545228,52.9303478 311.661149,53.7006087 310.135089,54.9724348 C308.479248,56.3606957 307.467842,58.4117391 307.185901,60.5344348 C307.172475,61.5286087 307.154574,62.5227826 307.199327,63.5169565 C307.71398,66.186 309.428,68.675913 311.934139,69.8313043 C314.310495,71.1747826 317.129901,71.2733043 319.788198,71.0717826 C322.043723,70.735913 324.312673,69.894 326.004317,68.3131739 C326.532396,67.8205652 326.885941,67.1667391 327.418495,66.6696522 C327.463248,67.9235652 327.409545,69.1819565 327.440871,70.4358696 C330.273703,70.4448261 333.11101,70.4448261 335.943842,70.4358696 C335.939366,64.8335652 335.957267,59.2312609 335.930416,53.6289565 L335.930416,53.6289565 Z M327.23501,60.3463478 C327.015723,61.0136087 326.787485,61.6943043 326.420515,62.2988696 C325.274851,63.7229565 323.547406,64.5962174 321.730455,64.7574348 C320.54899,65.0977826 319.331723,64.8111739 318.181584,64.4842609 C316.785307,64.0006087 315.639644,62.4511304 316.082693,60.9464348 C316.257228,59.988087 316.883762,59.1327391 317.760911,58.6983478 C319.045307,58.0624348 320.432634,57.4936957 321.89604,57.5250435 C323.71299,57.1757391 325.570218,57.3503913 327.41402,57.3190435 C327.387168,58.3266522 327.575129,59.370087 327.23501,60.3463478 L327.23501,60.3463478 Z" id="Shape" fill="#0268CC"></path>
                <path d="M79.9507327,40.109087 C80.4922376,40.0956522 81.0426931,40.1628261 81.5394455,40.4091304 C81.2485545,42.7243913 81.3828119,45.0575652 81.4365149,47.3817826 C80.9397624,47.3504348 80.4385347,47.3280435 79.9417822,47.3056522 C79.9373069,44.9142609 79.9238812,42.513913 79.9507327,40.109087 L79.9507327,40.109087 L79.9507327,40.109087 Z" id="Shape" fill="#0268CC"></path>
                <path d="M105.638653,40.5031739 C108.695248,40.5166087 111.742891,40.4852609 114.79501,40.521087 C114.799485,50.4896957 114.79501,60.4538261 114.79501,70.426913 C111.675762,70.4448261 108.55204,70.4582609 105.432792,70.4179565 C105.432792,60.7538696 105.446218,51.0897826 105.428317,41.4212174 C105.401465,41.0987826 105.499921,40.7942609 105.638653,40.5031739 L105.638653,40.5031739 L105.638653,40.5031739 Z" id="Shape" fill="#029AFF"></path>
            </g>
        </g>
    </g>
</svg>