<?xml version="1.0" encoding="UTF-8" standalone="no"?>
<svg width="164px" height="20px" viewBox="0 0 164 20" version="1.1" xmlns="http://www.w3.org/2000/svg" xmlns:xlink="http://www.w3.org/1999/xlink" xmlns:sketch="http://www.bohemiancoding.com/sketch/ns">
    <!-- Generator: Sketch 3.3.3 (12072) - http://www.bohemiancoding.com/sketch -->
    <title>polarflowlogo</title>
    <desc>Created with Sketch.</desc>
    <defs></defs>
    <g id="Page-1" stroke="none" stroke-width="1" fill="none" fill-rule="evenodd" sketch:type="MSPage">
        <g id="polarflowlogo" sketch:type="MSLayerGroup">
            <g id="Layer_1" sketch:type="MSShapeGroup">
                <g id="Group">
                    <path d="M110.631,16.416 L110.631,15.575 L111.323,15.575 C111.618,15.575 111.926,15.632 111.926,15.997 C111.926,16.36 111.618,16.417 111.323,16.417 L110.631,16.417 L110.631,16.416 Z M112.245,15.962 C112.223,15.457 111.809,15.368 111.389,15.368 L110.334,15.368 L110.334,17.742 L110.631,17.742 L110.631,16.649 L111.172,16.649 C111.403,17.013 111.634,17.379 111.863,17.742 L112.216,17.742 C111.974,17.376 111.73,17.011 111.487,16.644 C111.947,16.625 112.27,16.466 112.245,15.962 L112.245,15.962 Z" id="Shape" fill="#000000"></path>
                    <path d="M111.141,18.404 C110.108,18.404 109.324,17.548 109.324,16.558 C109.324,15.566 110.108,14.71 111.141,14.71 C112.168,14.71 112.954,15.566 112.954,16.558 C112.953,17.549 112.168,18.404 111.141,18.404 M111.141,14.429 C109.946,14.429 108.976,15.382 108.976,16.558 C108.976,17.734 109.945,18.685 111.141,18.685 C112.334,18.685 113.302,17.734 113.302,16.558 C113.301,15.382 112.334,14.429 111.141,14.429" id="Shape" fill="#000000"></path>
                    <path d="M43.097,8.724 C43.534,14.211 38.955,19.048 33.41,19.217 C27.549,19.397 23.306,14.366 24.464,8.724 L43.097,8.724 L43.097,8.724 Z" id="Shape" fill="#E2002B"></path>
                    <path d="M42.515,6.216 C41.147,2.757 37.755,0.687 34.04,0.782 C30.372,0.875 27.023,3.032 25.362,6.216 L42.515,6.216 L42.515,6.216 Z" id="Shape" fill="#E2002B"></path>
                    <path d="M5.686,8.724 L15.703,8.724 C16.394,8.724 16.996,8.173 17.06,7.495 C17.127,6.787 16.583,6.218 15.861,6.218 L3.872,6.218 C4.38,4.764 4.889,3.313 5.395,1.859 C5.525,1.487 5.891,1.223 6.295,1.223 L16.847,1.223 C20.439,1.223 23.137,4.13 22.803,7.649 C22.489,11.02 19.502,13.698 16.062,13.701 C13.865,13.701 11.667,13.701 9.469,13.703 C8.858,13.703 8.329,14.082 8.142,14.618 C7.743,15.76 7.344,16.904 6.946,18.047 C6.814,18.419 6.451,18.686 6.047,18.686 L1.189,18.686 C0.328,18.686 -0.203,17.881 0.074,17.088 C0.754,15.146 1.43,13.203 2.111,11.262 C2.629,9.772 4.076,8.724 5.686,8.724" id="Shape" fill="#000000"></path>
                    <path d="M98.621,18.685 C98.248,17.306 97.875,15.929 97.498,14.551 C97.356,14.029 96.911,13.701 96.367,13.701 L94.809,13.701 C94.198,13.703 93.668,14.082 93.481,14.618 C93.08,15.76 92.684,16.906 92.283,18.047 C92.152,18.419 91.789,18.686 91.388,18.686 L86.526,18.686 C85.667,18.686 85.135,17.881 85.41,17.09 C86.091,15.146 86.769,13.203 87.448,11.261 C87.968,9.773 89.415,8.727 91.026,8.727 L101.042,8.727 C101.731,8.727 102.333,8.173 102.398,7.495 C102.465,6.785 101.922,6.216 101.2,6.216 L89.21,6.216 C89.717,4.764 90.227,3.311 90.733,1.86 C90.864,1.488 91.229,1.223 91.632,1.223 L102.187,1.223 C105.779,1.223 108.476,4.131 108.143,7.65 C107.92,10.028 106.368,12.061 104.266,13.054 C104.779,14.922 105.292,16.795 105.801,18.686 L98.621,18.686 L98.621,18.685 Z" id="Shape" fill="#000000"></path>
                    <path d="M54.546,6.216 C55,4.922 55.45,3.629 55.902,2.336 C56.095,1.784 55.721,1.223 55.122,1.223 L49.792,1.223 C49.388,1.223 49.024,1.489 48.892,1.86 C48.386,3.313 47.878,4.764 47.371,6.216 L54.546,6.216 L54.546,6.216 Z" id="Shape" fill="#000000"></path>
                    <path d="M58.977,18.685 L44.686,18.685 C43.824,18.685 43.294,17.88 43.571,17.089 C44.545,14.301 45.519,11.513 46.494,8.726 L53.67,8.726 C53.335,9.681 53.003,10.634 52.669,11.591 C52.392,12.383 52.934,13.188 53.794,13.188 L59.883,13.188 C60.743,13.188 61.292,13.99 61.014,14.778 L59.874,18.046 C59.745,18.419 59.379,18.685 58.977,18.685" id="Shape" fill="#000000"></path>
                    <path d="M75.481,1.557 C74.164,3.112 72.85,4.663 71.533,6.216 L82.168,6.216 C82.036,4.796 81.902,3.375 81.769,1.955 C81.728,1.524 81.372,1.223 80.937,1.223 L76.209,1.223 C75.927,1.222 75.661,1.346 75.481,1.557" id="Shape" fill="#000000"></path>
                    <path d="M76.919,18.685 L82.295,18.685 C82.837,18.685 83.289,18.2 83.239,17.665 C82.96,14.686 82.682,11.704 82.404,8.725 L69.407,8.725 C67.165,11.37 64.927,14.014 62.685,16.659 C62.002,17.464 62.48,18.684 63.571,18.684 L67.845,18.684 C68.125,18.684 68.39,18.545 68.57,18.336 C69.746,16.946 70.922,15.559 72.098,14.172 C72.356,13.868 72.741,13.7 73.145,13.7 L74.588,13.7 C75.213,13.7 75.729,14.128 75.786,14.746 C75.887,15.809 75.986,16.873 76.085,17.936 C76.126,18.369 76.483,18.685 76.919,18.685" id="Shape" fill="#000000"></path>
                </g>
                <g id="Group" transform="translate(130.000000, 5.000000)" fill="#262626">
                    <path d="M2.369,9.673 L0.98,9.673 L0.98,1.106 L5.814,1.106 L5.814,2.29 L2.369,2.29 L2.369,4.968 L5.598,4.968 L5.598,6.157 L2.369,6.157 L2.369,9.673 L2.369,9.673 Z" id="Shape"></path>
                    <path d="M7.367,9.673 L7.367,1.106 L8.767,1.106 L8.767,8.471 L12.394,8.471 L12.394,9.672 L7.367,9.672 L7.367,9.673 Z" id="Shape"></path>
                    <path d="M21.477,5.378 C21.477,6.773 21.128,7.856 20.431,8.63 C19.734,9.403 18.746,9.79 17.469,9.79 C16.176,9.79 15.183,9.406 14.489,8.639 C13.796,7.871 13.449,6.781 13.449,5.367 C13.449,3.953 13.798,2.867 14.495,2.109 C15.192,1.351 16.187,0.972 17.48,0.972 C18.753,0.972 19.738,1.357 20.433,2.126 C21.129,2.896 21.477,3.979 21.477,5.378 L21.477,5.378 Z M14.937,5.378 C14.937,6.433 15.15,7.232 15.576,7.777 C16.002,8.322 16.633,8.594 17.469,8.594 C18.301,8.594 18.929,8.325 19.353,7.785 C19.777,7.246 19.989,6.443 19.989,5.377 C19.989,4.326 19.779,3.529 19.359,2.986 C18.939,2.443 18.313,2.172 17.481,2.172 C16.641,2.172 16.007,2.443 15.58,2.986 C15.151,3.53 14.937,4.327 14.937,5.378 L14.937,5.378 Z" id="Shape"></path>
                    <path d="M31.221,9.673 L29.698,9.673 L28.245,4.564 C28.183,4.341 28.104,4.02 28.011,3.6 C27.917,3.18 27.861,2.888 27.841,2.724 C27.802,2.974 27.738,3.298 27.651,3.697 C27.563,4.095 27.49,4.392 27.431,4.588 L26.013,9.674 L24.49,9.674 L23.383,5.385 L22.258,1.108 L23.688,1.108 L24.913,6.1 C25.104,6.901 25.241,7.608 25.323,8.221 C25.366,7.889 25.43,7.518 25.516,7.108 C25.602,6.698 25.68,6.366 25.75,6.112 L27.145,1.108 L28.534,1.108 L29.964,6.135 C30.101,6.6 30.245,7.295 30.398,8.221 C30.457,7.662 30.597,6.952 30.82,6.088 L32.039,1.108 L33.457,1.108 L31.221,9.673 L31.221,9.673 Z" id="Shape"></path>
                </g>
            </g>
            <g id="Layer_2" transform="translate(122.000000, 2.000000)" stroke="#B0B0B0" sketch:type="MSShapeGroup">
                <path d="M0.5,15.5 L0.5,0.5" id="Shape"></path>
            </g>
        </g>
    </g>
</svg>