<?xml version="1.0" encoding="UTF-8" standalone="no"?>
<svg width="107px" height="153px" viewBox="0 0 107 153" version="1.1" xmlns="http://www.w3.org/2000/svg" xmlns:xlink="http://www.w3.org/1999/xlink" xmlns:sketch="http://www.bohemiancoding.com/sketch/ns">
    <!-- Generator: Sketch 3.3.3 (12072) - http://www.bohemiancoding.com/sketch -->
    <title>sgrouplogo</title>
    <desc>Created with Sketch.</desc>
    <defs></defs>
    <g id="Page-1" stroke="none" stroke-width="1" fill="none" fill-rule="evenodd" sketch:type="MSPage">
        <g id="sgrouplogo" sketch:type="MSLayerGroup">
            <g id="Group" sketch:type="MSShapeGroup">
                <path d="M106.241135,29.539604 L106.241135,55.2920792 C102.33905,55.386 98.4164752,55.2572376 94.5401915,55.6238317 C88.3850355,56.2062921 85.5476383,58.7951733 85.1067376,64.9462277 C84.5937447,72.0970842 84.8312695,79.2986881 84.5876738,86.4722673 C84.4298298,91.1205891 84.800156,95.9885644 83.550305,100.363455 C76.6901631,124.375366 61.4544255,140.70698 37.387773,148.187317 C31.176461,150.117995 24.6137943,150.920866 18.212766,152.241817 L0.758865248,152.241817 L0.758865248,125.731916 C9.26422695,124.987366 18.020773,125.271401 26.2210709,123.277099 C41.9022624,119.46346 52.1568085,109.539668 54.1070922,92.8906931 C55.1732979,83.7879505 55.2446312,74.5731089 55.9974255,65.4279505 C57.3853901,48.5684109 66.3088865,37.291099 82.7641206,32.9245396 C90.3535319,30.911302 98.4012979,30.6151485 106.241135,29.539604 L106.241135,29.539604 Z" id="Shape" fill="#0C479C"></path>
                <path d="M97.1347518,0.757425743 L106.241135,0.757425743 L106.241135,26.509901 C98.3686667,27.4786485 90.3330426,27.7558663 82.6563617,29.5562673 C64.9391348,33.7122624 53.1410567,47.5981485 52.4573191,63.9782376 C52.1150709,72.1720693 52.0551206,80.3863515 51.4260213,88.5574604 C50.4045887,101.822257 44.5749858,112.02554 31.9565745,117.76304 C21.9403121,122.316683 11.4285106,122.568906 0.758865248,121.945545 L0.758865248,96.1930693 C5.0138227,96.196099 9.28699291,96.4460495 13.5176667,96.1324752 C17.8667234,95.8098119 21.0160142,93.223203 21.5586028,88.9043614 C22.2605532,83.313802 22.120922,77.6217475 22.4821418,71.9827129 C22.9086241,65.336302 22.7037305,58.5247723 24.1486099,52.0919554 C27.6492553,36.4995891 37.8438511,24.9079455 49.8103972,15.2916683 C60.9262553,6.35858911 74.8878582,4.04162376 88.7743333,2.36392574 C91.5844113,2.02384158 94.3489574,1.30277228 97.1347518,0.757425743 L97.1347518,0.757425743 Z" id="Shape" fill="#0C479C"></path>
                <path d="M97.1347518,0.757425743 C94.3489574,1.30277228 91.5844113,2.02384158 88.7743333,2.36316832 C74.8878582,4.04086634 60.9262553,6.35783168 49.8103972,15.2909109 C37.8438511,24.9079455 27.6500142,36.4988317 24.1486099,52.091198 C22.7044894,58.5240149 22.9086241,65.3355446 22.4821418,71.9819554 C22.120922,77.6209901 22.2605532,83.3130446 21.5586028,88.903604 C21.0160142,93.2224455 17.8667234,95.8090545 13.5176667,96.1317178 C9.28623404,96.4460495 5.01306383,96.1953416 0.758865248,96.1923119 L0.758865248,0.756668317 C32.8839078,0.757425743 65.0097092,0.757425743 97.1347518,0.757425743 L97.1347518,0.757425743 Z" id="Shape" fill="#FFFFFF"></path>
                <path d="M18.212766,152.242574 C24.6137943,150.921624 31.176461,150.117995 37.387773,148.188074 C61.4536667,140.707738 76.6901631,124.376124 83.550305,100.364213 C84.800156,95.9885644 84.4305887,91.1205891 84.5876738,86.4730248 C84.8312695,79.2986881 84.5937447,72.0978416 85.1067376,64.9469851 C85.5476383,58.7966881 88.3857943,56.2070495 94.5401915,55.6245891 C98.4157163,55.257995 102.33905,55.386 106.241135,55.2928366 L106.241135,152.243332 C76.8988511,152.242574 47.5558085,152.242574 18.212766,152.242574 L18.212766,152.242574 Z" id="Shape" fill="#FFFFFF"></path>
                <path d="M0.758865248,121.945545 C11.4285106,122.568906 21.9403121,122.316683 31.9565745,117.76304 C44.5749858,112.02554 50.4045887,101.822257 51.4260213,88.5574604 C52.0551206,80.3863515 52.1150709,72.1720693 52.4573191,63.9782376 C53.1418156,47.5989059 64.9391348,33.7122624 82.6563617,29.5562673 C90.3330426,27.7558663 98.3686667,27.4786485 106.241135,26.509901 L106.241135,29.539604 C98.4012979,30.6151485 90.3535319,30.911302 82.7633617,32.925297 C66.3081277,37.2918564 57.3838723,48.5691683 55.9966667,65.4287079 C55.2438723,74.5738663 55.1732979,83.7887079 54.1063333,92.8914505 C52.1560496,109.540426 41.9022624,119.464218 26.2203121,123.277856 C18.0200142,125.272158 9.26346809,124.988124 0.758106383,125.732673 C0.758865248,124.470045 0.758865248,123.208173 0.758865248,121.945545 L0.758865248,121.945545 Z" id="Shape" fill="#FFFFFF"></path>
            </g>
        </g>
    </g>
</svg>